<?xml version="1.0" standalone="no"?> 
<!DOCTYPE svg PUBLIC "-//W3C//DTD SVG 1.1//EN" "http://www.w3.org/Graphics/SVG/1.1/DTD/svg11.dtd" >
<svg xmlns="http://www.w3.org/2000/svg">
<defs>
  <font id="kentfont" horiz-adv-x="7062">
    <font-face font-family="kentfont"
      units-per-em="512" ascent="448"
      descent="64" />
    <missing-glyph horiz-adv-x="0" />
    <glyph glyph-name="book"
      unicode="&#xF02D;"
      horiz-adv-x="512" d=" M256 352C256 352 192 416 0 416V32C194 32 256 -32 256 -32S318 32 512 32V416C320 416 256 352 256 352zM64 352C145.344 345.18399999999997 195.248 326.368 224 311.12V53.375999999999976C195.248 68.56 145.344 87.37599999999998 64 94.25599999999997V352zM448 94.25599999999997C366.624 87.37599999999998 316.752 68.59199999999998 288 53.375999999999976V311.12C316.752 326.368 366.624 345.18399999999997 448 352V94.25599999999997z" />
    <glyph glyph-name="chevron-down"
      unicode="&#xF078;"
      horiz-adv-x="512" d=" M480.85942857142857 217.14285714285717L268.85485714285716 5.430857142857178Q263.424 0 256 0T243.1451428571429 5.430857142857178L31.14057142857148 217.14285714285717Q25.70971428571434 222.57371428571432 25.70971428571434 230.144T31.14057142857148 243.14514285714287L78.57371428571433 290.28571428571433Q84.00457142857147 295.71657142857146 91.42857142857147 295.71657142857146T104.28342857142862 290.28571428571433L256.00000000000006 138.56914285714288L407.71657142857146 290.28571428571433Q413.14742857142863 295.71657142857146 420.5714285714286 295.71657142857146T433.42628571428577 290.28571428571433L480.8594285714286 243.14514285714287Q486.2902857142858 237.71428571428572 486.2902857142858 230.144T480.8594285714286 217.14285714285717z" />
    <glyph glyph-name="chevron-left"
      unicode="&#xF053;"
      horiz-adv-x="365.71428571428567" d=" M334.5737142857143 362.00228571428573L182.85714285714283 210.2857142857143L334.5737142857143 58.56914285714288Q340.0045714285714 53.1382857142857 340.0045714285714 45.71428571428572T334.5737142857143 32.85942857142862L287.14057142857143 -14.573714285714289Q281.70971428571426 -20.00457142857141 274.2857142857143 -20.00457142857141T261.4308571428572 -14.573714285714289L49.42628571428577 197.43085714285712Q43.99542857142862 202.8617142857143 43.99542857142862 210.28571428571428T49.42628571428577 223.1405714285714L261.4308571428572 435.1451428571428Q266.8617142857143 440.57599999999996 274.2857142857143 440.57599999999996T287.14057142857143 435.1451428571428L334.5737142857143 387.71199999999993Q340.0045714285714 382.2811428571428 340.0045714285714 374.85714285714283T334.5737142857143 362.0022857142857z" />
    <glyph glyph-name="chevron-right"
      unicode="&#xF054;"
      horiz-adv-x="365.71428571428567" d=" M316.288 197.43085714285718L104.28342857142859 -14.573714285714232Q98.85257142857145 -20.004571428571353 91.42857142857144 -20.004571428571353T78.57371428571429 -14.573714285714232L31.14057142857144 32.85942857142868Q25.7097142857143 38.2902857142858 25.7097142857143 45.71428571428578T31.14057142857144 58.569142857142936L182.8571428571429 210.28571428571436L31.140571428571448 362.0022857142858Q25.709714285714306 367.4331428571429 25.709714285714306 374.85714285714295T31.140571428571448 387.7120000000001L78.57371428571429 435.1451428571429Q84.00457142857142 440.5760000000001 91.42857142857144 440.5760000000001T104.28342857142859 435.1451428571429L316.288 223.14057142857152Q321.71885714285713 217.70971428571437 321.71885714285713 210.2857142857144T316.288 197.43085714285726z" />
    <glyph glyph-name="chevron-up"
      unicode="&#xF077;"
      horiz-adv-x="512" d=" M480.85942857142857 67.71199999999999L433.42628571428565 20.571428571428612Q427.99542857142853 15.140571428571434 420.57142857142856 15.140571428571434T407.7165714285714 20.571428571428612L256 172.288L104.28342857142856 20.571428571428612Q98.85257142857142 15.140571428571434 91.4285714285714 15.140571428571434T78.57371428571426 20.571428571428612L31.14057142857141 67.71199999999999Q25.709714285714266 73.14285714285717 25.709714285714266 80.71314285714283T31.14057142857141 93.71428571428567L243.14514285714282 305.42628571428565Q248.57599999999996 310.8571428571428 255.99999999999994 310.8571428571428T268.8548571428571 305.42628571428565L480.8594285714285 93.71428571428567Q486.29028571428563 88.28342857142849 486.29028571428563 80.71314285714283T480.8594285714285 67.71199999999999z" />
    <glyph glyph-name="circle"
      unicode="&#xF111;"
      horiz-adv-x="512" d=" M438.85714285714283 192Q438.85714285714283 132.2788571428572 409.43542857142853 81.86514285714287T329.5817142857142 2.0114285714286098T219.44685714285708 -27.41028571428575T109.31199999999995 2.0114285714286098T29.458285714285676 81.86514285714287T0.03657142857139206 192T29.458285714285676 302.1348571428572T109.31199999999995 381.98857142857145T219.44685714285708 411.4102857142857T329.5817142857142 381.98857142857145T409.43542857142853 302.1348571428572T438.85714285714283 192z" />
    <glyph glyph-name="creative-commons"
      unicode="&#xF25E;"
      horiz-adv-x="512" d=" M172.87314285714285 95.70742857142864Q216.57600000000002 95.70742857142864 246.30857142857144 125.44000000000005Q250.29485714285715 130.5965714285715 247.14971428571428 135.7165714285715L234.2765714285714 159.15885714285724Q232.55771428571427 162.88914285714299 227.43771428571426 164.02285714285722Q222.86628571428568 164.60800000000012 219.7211428571428 160.87771428571438L218.58742857142855 160.0365714285715Q217.45371428571426 158.90285714285727 215.29599999999996 157.18400000000008T210.28571428571428 153.45371428571434T203.5565714285714 149.32114285714295T195.40114285714284 145.4811428571429T185.81942857142855 142.77485714285723T175.10399999999996 141.78742857142868Q153.3805714285714 141.78742857142868 139.37371428571427 156.08685714285724T125.36685714285711 192.36571428571438Q125.36685714285711 214.08914285714297 139.08114285714282 228.20571428571438T173.93371428571425 242.35885714285723Q184.5028571428571 242.35885714285723 194.37714285714281 238.37257142857152T208.8228571428571 230.36342857142867L213.39428571428567 226.37714285714296Q216.53942857142854 223.23200000000008 220.81828571428568 223.5245714285715Q225.38971428571426 224.10971428571438 227.65714285714284 227.51085714285722L242.79771428571425 249.7828571428572Q246.52799999999996 255.48800000000006 242.21257142857138 260.93714285714293Q241.37142857142854 262.0708571428572 239.06742857142854 264.3748571428572T230.50971428571424 271.10400000000004T216.64914285714283 279.113142857143T197.37599999999998 285.54971428571434T172.79999999999998 288.4022857142858Q130.52342857142855 288.4022857142858 102.50971428571428 260.8274285714287T74.496 192.10971428571443Q74.496 150.38171428571445 102.21714285714285 123.09942857142869T172.79999999999998 95.81714285714298zM352.8411428571428 95.70742857142864Q396.544 95.70742857142864 426.27657142857134 125.44000000000005Q430.26285714285706 130.5965714285715 427.4102857142857 135.7165714285715L414.5371428571428 159.15885714285724Q412.26971428571426 163.14514285714296 407.4057142857142 164.02285714285722Q402.83428571428567 164.60800000000012 399.68914285714277 160.87771428571438L398.5554285714285 160.0365714285715Q397.4217142857142 158.90285714285727 395.2639999999999 157.18400000000008T390.2537142857142 153.45371428571434T383.52457142857133 149.32114285714295T375.3691428571427 145.4811428571429T365.78742857142845 142.77485714285723T355.0719999999999 141.78742857142868Q333.34857142857135 141.78742857142868 319.3417142857142 156.08685714285724T305.334857142857 192.36571428571438Q305.334857142857 214.08914285714297 319.0491428571427 228.20571428571438T353.90171428571415 242.35885714285723Q364.47085714285697 242.35885714285723 374.34514285714266 238.37257142857152T388.7908571428569 230.36342857142867L393.3622857142855 226.37714285714296Q396.50742857142836 223.23200000000008 400.7862857142855 223.5245714285715Q405.35771428571405 224.10971428571438 407.6251428571426 227.51085714285722L422.765714285714 249.7828571428572Q426.49599999999975 255.48800000000006 422.18057142857117 260.93714285714293Q421.3394285714283 262.0708571428572 419.03542857142827 264.3748571428572T410.477714285714 271.10400000000004T396.6171428571426 279.113142857143T377.34399999999977 285.54971428571434T352.76799999999974 288.4022857142858Q310.78399999999976 288.4022857142858 282.62399999999974 260.8274285714287T254.46399999999974 192.10971428571443Q254.46399999999974 150.38171428571445 282.1851428571426 123.09942857142869T352.76799999999974 95.81714285714298zM256 402.2857142857143Q213.1382857142857 402.2857142857143 174.29942857142856 385.57257142857145T107.30057142857143 340.6994285714286T62.42742857142857 273.70057142857144T45.71428571428571 192T62.42742857142857 110.29942857142856T107.30057142857143 43.3005714285714T174.29942857142856 -1.5725714285714503T256 -18.285714285714334T337.70057142857144 -1.5725714285714503T404.6994285714286 43.3005714285714T449.57257142857145 110.29942857142856T466.28571428571433 192T449.57257142857145 273.70057142857144T404.6994285714286 340.6994285714286T337.70057142857144 385.57257142857145T256 402.2857142857143zM256 448Q308.0045714285714 448 355.43771428571426 427.70285714285717T437.13828571428564 373.1382857142857T491.7028571428571 291.43771428571426T512 192T491.7028571428571 92.56228571428574T437.13828571428564 10.861714285714356T355.43771428571426 -43.70285714285711T256 -64T156.56228571428574 -43.70285714285711T74.8617142857143 10.861714285714356T20.297142857142877 92.56228571428574T2.0301221021717145e-14 192T20.297142857142877 291.43771428571426T74.8617142857143 373.1382857142857T156.56228571428574 427.7028571428571T256 448z" />
    <glyph glyph-name="email"
      unicode="&#xF0E0;"
      horiz-adv-x="512" d=" M255.936 200.688L512 321.312V384H0V321.504zM256.064 129.93599999999998L0 250.88V0H512V250.496z" />
    <glyph glyph-name="facebook"
      unicode="&#xF09A;"
      horiz-adv-x="512" d=" M383.71428571428567 444.57142857142856V369.14285714285717H338.85714285714283Q314.2857142857143 369.14285714285717 305.7142857142857 358.8571428571429T297.1428571428571 328V274H380.85714285714283L369.71428571428567 189.42857142857144H297.1428571428571V-27.428571428571388H209.7142857142857V189.42857142857144H136.85714285714286V274H209.7142857142857V336.2857142857143Q209.7142857142857 389.42857142857144 239.42857142857142 418.7142857142857T318.57142857142856 448Q360.57142857142856 448 383.71428571428567 444.57142857142856z" />
    <glyph glyph-name="kent-block"
      unicode="&#xE002;"
      horiz-adv-x="944" d=" M47.4275 311.96000000000004C9.379000000000005 311.96000000000004 1.356500000000004 332.72450000000003 1.356500000000004 354.9635V434.747H20.911500000000004V356.409C20.911500000000004 340.2755 26.279500000000006 328.09400000000005 48.6955 328.09400000000005C68.42750000000001 328.09400000000005 77.3645 336.3525 77.3645 358.91600000000005V434.747H96.56550000000001V360.39050000000003C96.53600000000002 328.09350000000006 79.16350000000001 311.96000000000004 47.427000000000014 311.96000000000004zM176.998 313.73V370.95C176.998 382.03999999999996 173.9305 388.6765 163.519 388.6765C150.276 388.6765 140.21800000000002 374.5485 140.21800000000002 356.586V313.73H121.25300000000001V387.998C116.94700000000002 388.6765 113.17150000000001 389.4135 107.95100000000002 389.7675V401.6245C117.97900000000003 402.68649999999997 128.568 403.4235 139.54000000000002 402.834C139.54000000000002 398.20349999999996 138.97950000000003 390.4755 138.09500000000003 385.255H138.44900000000004C143.64000000000004 396.7285 154.40550000000005 404.6035 169.30050000000006 404.6035C189.56350000000006 404.6035 195.99350000000007 391.7145 195.99350000000007 376.1115V313.7005H176.99900000000008zM218.2025 313.73V387.998C213.89649999999997 388.6765 210.1505 389.4135 204.92999999999998 389.7675V401.6245C214.95799999999997 402.68649999999997 225.54699999999997 403.453 237.1975 402.8635V313.7595H218.203zM227.7295 418.9675C221.2995 418.9675 215.902 424.0405 215.902 430.6475C215.902 437.0775 221.2995 442.298 227.72949999999997 442.298C234.30699999999996 442.298 239.70449999999997 437.0775 239.70449999999997 430.6475C239.70449999999997 424.188 234.30699999999996 418.9675 227.72949999999997 418.9675zM301.201 313.73H281.646L248.28750000000002 402.834H269.46500000000003L286.1 355.7015C288.25300000000004 349.596 290.22950000000003 343.3135 291.822 337.4145H291.999C293.41450000000003 342.9595 295.214 349.24199999999996 297.21950000000004 354.96399999999994L314.23800000000006 402.83399999999995H334.8550000000001L301.20150000000007 313.72999999999996zM411.7765 356.7925H354.94C354.3795 336.5 363.5525 327.38599999999997 381.3085 327.38599999999997C389.921 327.38599999999997 398.8875 329.185 406.93949999999995 332.754L409.44649999999996 317.7115C400.15549999999996 313.9655 389.03599999999994 311.9895 377.9164999999999 311.9895C350.4864999999999 311.9895 335.23749999999995 326.29449999999997 335.23749999999995 357.7065C335.23749999999995 384.6055 349.9555 404.662 375.96999999999997 404.662C401.424 404.662 412.3665 387.31899999999996 412.3665 366.11249999999995C412.30749999999995 363.57599999999996 412.15999999999997 360.5675 411.7765 356.792zM375.203 390.4755C364.4375 390.4755 356.9455 382.571 355.32349999999997 370.0355H393.16549999999995C393.48999999999995 382.8065 386.49949999999995 390.4755 375.203 390.4755zM476.1935 385.6085C457.553 389.2365 448.9405 376.6715 448.9405 349.9495V313.70050000000003H429.94599999999997V387.9685C425.64 388.647 421.86449999999996 389.384 416.6735 389.738V401.595C426.7015 402.657 437.26099999999997 403.4235 448.20349999999996 402.834C448.20349999999996 397.82 447.525 389.9155 446.4045 383.1315H446.8175C450.77 395.136 459.55899999999997 406.226 477.079 404.456L476.194 385.609zM505.393 311.96000000000004C498.5795 311.96000000000004 491.265 312.845 485.66099999999994 314.467L487.10599999999994 330.77750000000003C492.68049999999994 328.654 499.8184999999999 327.38550000000004 506.66099999999994 327.38550000000004C516.689 327.38550000000004 523.6795 331.86850000000004 523.6795 339.036C523.6795 357.323 484.59899999999993 346.2325 484.59899999999993 377.055C484.59899999999993 392.6575 496.4264999999999 404.66200000000003 520.9955 404.66200000000003C526.393 404.66200000000003 532.646 403.954 537.8075 402.863L536.7455 387.4665C531.5545 389.0885 525.6555 389.9735 519.9335 389.9735C509.34499999999997 389.9735 504.3015 385.6675 504.3015 378.85400000000004C504.3015 361.3045 543.7655 370.97900000000004 543.7655 341.012C543.7655 324.141 529.077 311.95950000000005 505.393 311.95950000000005zM561.4925 313.73V387.998C557.1864999999999 388.6765 553.411 389.4135 548.2199999999999 389.7675V401.6245C558.2774999999999 402.68649999999997 568.8369999999999 403.453 580.5169999999999 402.8635V313.7595H561.4929999999999zM570.96 418.9675C564.5300000000001 418.9675 559.1915 424.0405 559.1915 430.6475C559.1915 437.0775 564.5595000000001 442.298 570.96 442.298C577.5965 442.298 582.994 437.0775 582.994 430.6475C583.0235 424.188 577.5965 418.9675 570.96 418.9675zM633.725 312.137C614.701 312.137 608.979 319.481 608.979 339.39V387.968H591.9605V402.8335H608.979V431.178L628.1505000000001 436.369V402.8335H651.4515000000001V387.968H628.1505000000001V345.289C628.1505000000001 332.046 630.8935000000001 328.477 639.8305 328.477C643.8125 328.477 647.558 329.00800000000004 650.7435 329.716L652.3655 314.3195C646.9975 313.0215 639.653 312.137 633.725 312.137zM710.2935 307.477C699.2035 277.717 687.376 268.603 667.1129999999999 268.603C663.6914999999999 268.603 658.8839999999999 269.1635 655.8164999999999 269.665L657.9399999999999 286.32950000000005C661.0074999999999 285.44450000000006 665.284 284.914 668.853 284.914C677.2885 284.914 685.1635 289.014 691.092 304.9705L694.307 313.7305L660.9780000000001 402.8345H682.4795L697.0500000000001 362.161C699.8815000000001 354.2565 702.0345000000001 346.3815 704.0110000000001 338.83050000000003H704.1585000000001C705.9870000000001 346.027 709.7330000000001 357.6775 713.0070000000001 366.58500000000004L725.7195 402.834H746.3365L710.294 307.4775zM826.8275 311.96000000000004C802.0815 311.96000000000004 785.9475 325.7635 785.9475 357.1165C785.9475 384.0155 803.3199999999999 404.603 830.396 404.603C854.2574999999999 404.603 871.0695 391.36 871.0695 359.97749999999996C871.0695 332.6065 853.1954999999999 311.96 826.8275 311.96zM828.833 388.499C817.153 388.499 805.886 379.5325 805.886 359.122C805.886 339.0065 813.761 328.477 828.6265 328.477C840.985 328.477 851.367 338.1515 851.367 358.76800000000003C851.367 377.7625 844.0229999999999 388.4985 828.833 388.4985zM941.2965 428.494C937.403 429.7625 933.0675 430.293 929.1445 430.293C917.6415 430.293 912.48 424.0105 912.48 410.0595V402.8335H935.604V387.968H912.48V313.7H893.4855V387.96799999999996H876.408V402.83349999999996H893.4855V409.647C893.4855 434.0095 905.136 445.8665 928.26 445.8665C933.3035 445.8665 938.1115 445.33549999999997 942.7715 444.24449999999996L941.2969999999999 428.49449999999996zM670.5935 -59.93950000000001V100.1875C670.5935 131.30450000000002 660.654 149.88600000000002 626.7935 149.88600000000002C583.495 149.88600000000002 550.815 110.21550000000002 550.815 60.045000000000016V-59.910499999999956H488.84650000000005V147.88050000000004C474.8070000000001 149.88600000000002 465.48650000000004 152.45200000000006 447.43600000000004 152.89450000000005V186.01700000000005C480.1455 189.05500000000006 512.826 191.06050000000005 548.4555 189.55650000000003C548.4555 176.49050000000005 546.7155 154.90000000000003 543.7955000000001 140.35900000000004H544.12C561.0795 172.50850000000003 597.004 194.57050000000004 645.4935 194.57050000000004C711.5325 194.57050000000004 732.562 158.41000000000003 732.562 114.78700000000003V-59.910499999999956H670.5935000000001zM882.9265 -64.45249999999999C820.8695 -64.45249999999999 802.1405 -43.86500000000001 802.1405 11.879999999999995V147.851H748.8435V189.527H802.1405V266.4495L864.7875 281.02V189.4975H940.884V147.82150000000001H864.758V28.367500000000007C864.758 -8.766500000000008 873.5475 -18.79449999999997 902.836 -18.79449999999997C915.725 -18.79449999999997 927.995 -17.319999999999993 938.5245 -15.313999999999965L943.8335 -58.40599999999995C926.2545 -61.945499999999925 902.2755 -64.45249999999999 882.9269999999999 -64.45249999999999zM425.3445 -8.618499999999983L434.45849999999996 -50.70749999999998C434.45849999999996 -50.70749999999998 390.00999999999993 -66.01549999999997 334.294 -66.01549999999997C197.88049999999998 -70.1155 135.38099999999997 18.398500000000013 124.05499999999998 32.261000000000024C113.46649999999998 45.17950000000002 63.32499999999998 105.58500000000004 63.32499999999998 105.58500000000004V-60.02799999999996H1.3859999999999815V278.80800000000005H63.32499999999998V121.71900000000005L194.8425 278.80800000000005H266.4855L123.87800000000001 115.73150000000004C123.87800000000001 115.73150000000004 161.484 69.42450000000002 176.7915 52.73050000000006C201.567 25.772500000000036 279.2565 -59.17249999999996 425.34400000000005 -8.618499999999926zM192.365 66.82900000000001C203.75 54.382000000000005 227.52300000000002 28.545000000000016 264.303 12.086500000000001C267.105 10.847500000000025 269.966 9.668000000000006 272.7975 8.57650000000001C262.15000000000003 23.589499999999987 255.484 44.94350000000003 255.484 74.96950000000004C255.484 116.64550000000003 272.7385 154.87100000000004 323.145 154.87100000000004C360.515 154.87100000000004 383.84549999999996 133.34000000000003 382.66549999999995 97.71000000000004V97.23800000000006C345.8855 98.80100000000004 310.256 95.58650000000006 276.51399999999995 92.54850000000005V59.45550000000003L443.7199999999999 50.25300000000004C444.9294999999999 60.81200000000007 446.1384999999999 79.60050000000007 446.1384999999999 86.62000000000006C446.1384999999999 145.84550000000007 410.44999999999993 194.60050000000007 322.8209999999999 194.60050000000007C230.5909999999999 194.60050000000007 191.68699999999993 128.47300000000007 191.68699999999993 74.8515000000001C191.68699999999993 72.5510000000001 191.71649999999994 70.28000000000009 191.77549999999994 68.03800000000012C191.80499999999995 67.24150000000014 192.07049999999992 67.18250000000012 192.36549999999994 66.82850000000013z" />
    <glyph glyph-name="kent-horizontal"
      unicode="&#xE001;"
      horiz-adv-x="3531" d=" M110.9965 38.36700000000002C19.453999999999994 38.36700000000002 0.0005000000000023874 88.47500000000002 0.0005000000000023874 142.09450000000004V334.38000000000005H47.089000000000006V145.64150000000006C47.089000000000006 106.73500000000007 60.01100000000001 77.34450000000004 114.01650000000001 77.34450000000004C161.561 77.34450000000004 183.19150000000002 97.21900000000005 183.19150000000002 151.61050000000006V334.38000000000005H229.36650000000003V155.08700000000005C229.40100000000004 77.30850000000004 187.47450000000003 38.367500000000064 110.99650000000003 38.367500000000064zM423.2315 42.720500000000015V180.579C423.2315 207.3705 415.8915 223.3485 390.82099999999997 223.3485C358.86699999999996 223.3485 334.6735 189.18200000000002 334.6735 146.062V42.722500000000025H288.849V221.62950000000004C278.4905 223.35000000000002 269.39549999999997 225.10650000000004 256.86 225.91350000000003V254.39100000000002C281.0185 257.0245 306.54650000000004 258.7445 332.882 257.41100000000006C332.882 246.21000000000004 331.618 227.63350000000003 329.442 215.13300000000004H330.3205C342.82099999999997 242.80350000000004 368.77049999999997 261.76450000000006 404.5865 261.76450000000006C453.4655 261.76450000000006 468.9515 230.72350000000006 468.9515 193.08100000000007V42.722000000000094H423.233zM522.5345 42.720500000000015V221.62750000000003C512.1405 223.348 503.08099999999996 225.10450000000003 490.5455 225.91150000000002V254.389C514.704 257.02250000000004 540.267 258.7425 568.3575 257.409V42.721000000000004H522.534zM545.464 296.28C529.9435000000001 296.28 516.9515 308.5 516.9515 324.37149999999997C516.9515 339.85699999999997 529.979 352.533 545.464 352.533C561.3355 352.533 574.363 339.892 574.363 324.37149999999997C574.363 308.92150000000004 561.3355 296.28 545.464 296.28zM722.5095 42.720500000000015H675.4565L595.1505 257.37350000000004H646.0659999999999L686.2364999999999 143.77949999999998C691.3984999999999 129.17199999999997 696.1369999999998 114.00299999999999 700.0359999999998 99.74649999999997H700.5274999999998C704.0034999999998 113.15999999999997 708.2539999999998 128.29399999999998 713.0279999999998 142.09399999999994L754.0414999999998 257.3739999999999H803.7279999999998L722.5094999999999 42.72099999999995zM988.9205 146.44799999999998H852.011C850.747 97.6395 872.764 75.58749999999998 915.4975 75.58749999999998C936.2149999999999 75.58749999999998 957.8449999999999 79.87149999999997 977.228 88.44049999999999L983.2674999999999 52.27299999999997C960.8649999999999 43.10799999999995 934.0719999999999 38.36849999999998 907.2104999999999 38.36849999999998C841.1254999999999 38.36849999999998 804.4319999999999 72.99099999999999 804.4319999999999 148.59199999999998C804.4319999999999 213.37699999999998 839.8619999999999 261.765 902.5065 261.765C963.886 261.765 990.222 219.944 990.222 168.88799999999998C990.2565 162.8485 989.8355 155.5095 988.9225 146.45zM900.8195 227.5965C874.9409999999999 227.5965 856.7159999999999 208.59949999999998 852.8534999999999 178.332H944.0094999999999C944.8519999999999 209.0915 928.0324999999999 227.5965 900.8204999999999 227.5965zM1144.1255 215.939C1099.1795000000002 224.577 1078.462 194.3795 1078.462 129.97949999999997V42.72049999999996H1032.708V221.62749999999997C1022.3140000000001 223.34799999999996 1013.2195 225.10449999999997 1000.6845000000001 225.91149999999996V254.38899999999995C1024.8780000000002 257.0224999999999 1050.371 258.74249999999995 1076.7415 257.409C1076.7415 245.36499999999995 1075.0210000000002 226.36799999999997 1072.423 209.89949999999996H1073.3005C1082.7815 238.93899999999996 1103.9905 265.731 1146.3020000000001 261.3425L1144.1250000000002 215.93999999999997zM1214.6 38.36700000000002C1198.1315 38.36700000000002 1180.399 40.54400000000004 1167.0204999999999 44.512L1170.532 83.73450000000003C1183.9455 78.608 1201.2569999999998 75.6225 1217.55 75.6225C1241.7435 75.6225 1258.633 86.40249999999997 1258.633 103.714C1258.633 147.8175 1164.4565 120.95499999999998 1164.4565 195.22050000000002C1164.4565 232.863 1192.969 261.76250000000005 1252.136 261.76250000000005C1265.128 261.76250000000005 1280.1924999999999 260.04200000000003 1292.7275 257.409L1290.129 220.36300000000003C1277.6284999999998 224.19000000000003 1263.3719999999998 226.36600000000004 1249.5375 226.36600000000004C1224.0794999999998 226.36600000000004 1211.9299999999998 215.97200000000004 1211.9299999999998 199.57450000000006C1211.9299999999998 157.2270000000001 1306.984 180.57750000000004 1306.984 108.34800000000007C1306.984 67.79150000000004 1271.5185 38.365500000000054 1214.599 38.365500000000054zM1349.719 42.720500000000015V221.62750000000003C1339.3605 223.348 1330.2305000000001 225.10450000000003 1317.765 225.91150000000002V254.389C1341.9235 257.02250000000004 1367.4865000000002 258.7425 1395.5085000000001 257.409V42.721000000000004H1349.7210000000002zM1372.6135 296.28C1357.128 296.28 1344.136 308.5 1344.136 324.37149999999997C1344.136 339.85699999999997 1357.128 352.533 1372.6135 352.533C1388.5555 352.533 1401.5475 339.892 1401.5475 324.37149999999997C1401.513 308.92150000000004 1388.52 296.28 1372.6135 296.28zM1523.8155 38.858000000000004C1478.0259999999998 38.858000000000004 1464.191 56.59050000000002 1464.191 104.48649999999998V221.59249999999997H1423.1775V257.37399999999997H1464.191V325.70599999999996L1510.4715 338.1715V257.33899999999994H1566.6190000000001V221.55749999999998H1510.4715V118.70799999999997C1510.4715 86.75399999999996 1516.8970000000002 78.11649999999997 1538.4920000000002 78.11649999999997C1548.0080000000003 78.11649999999997 1557.0685 79.41499999999996 1564.8275 81.17149999999998L1568.7250000000001 44.02049999999997C1555.7675000000002 41.00049999999999 1538.035 38.85849999999999 1523.814 38.85849999999999zM1708.2705 27.621500000000026C1681.5485 -44.04649999999998 1653.036 -66.13349999999991 1604.228 -66.13349999999991C1596.0115 -66.13349999999991 1584.3185 -64.7639999999999 1576.9795000000001 -63.53499999999991L1582.1765 -23.32949999999994C1589.481 -25.50649999999996 1599.874 -26.769499999999937 1608.512 -26.769499999999937C1628.8084999999999 -26.769499999999937 1647.84 -16.902499999999918 1662.0964999999999 21.58250000000004L1669.8564999999999 42.72100000000006L1589.4799999999998 257.374H1641.3434999999997L1676.3174999999997 159.37050000000005C1683.2349999999997 140.30350000000004 1688.4324999999997 121.41100000000006 1693.1369999999997 103.15250000000003H1693.5934999999997C1697.8774999999998 120.49900000000002 1707.0069999999998 148.55500000000006 1714.8024999999998 170.18550000000005L1745.4219999999998 257.33900000000006H1795.1084999999998L1708.2709999999997 27.62200000000007zM1989.0085 38.36700000000002C1929.4904999999999 38.36700000000002 1890.5835 71.69050000000004 1890.5835 147.327C1890.5835 212.0775 1932.51 261.764 1997.682 261.764C2055.1635 261.764 2095.721 229.81 2095.721 154.27949999999998C2095.721 88.08999999999997 2052.5655 38.36699999999996 1989.008 38.36699999999996zM1993.8535 222.8565C1965.762 222.8565 1938.548 201.29600000000002 1938.548 151.96050000000002C1938.548 103.64350000000002 1957.5795 78.1155 1993.4315 78.1155C2023.2079999999999 78.1155 2048.2445 101.36099999999999 2048.2445 151.15300000000002C2048.2099999999996 196.907 2030.5469999999998 222.85600000000002 1993.8534999999997 222.85600000000002zM2264.9355 319.28049999999996C2255.4195 322.1595 2245.061 323.529 2235.5805 323.529C2207.911 323.529 2195.375 308.4305 2195.375 274.7555V257.374H2251.1005V221.5925H2195.375V42.72149999999999H2149.6565V221.6285H2108.5735V257.40999999999997H2149.6565V273.9135C2149.6565 332.6245 2177.6425 361.137 2233.439 361.137C2245.5184999999997 361.137 2257.176 359.8385 2268.3775 357.2395L2264.936 319.2815zM3205.714 41.56200000000001V231.354C3205.714 268.2585 3193.95 290.3455 3153.7799999999997 290.3455C3102.5134999999996 290.3455 3063.7119999999995 243.32750000000001 3063.7119999999995 183.80900000000003V41.56200000000001H2990.2884999999997V287.9585C2973.6445 290.3465 2962.5134999999996 293.401 2941.1289999999995 293.89300000000003V333.1505C2979.9299999999994 336.803 3018.6604999999995 339.1535 3060.9734999999996 337.36400000000003C3060.9734999999996 321.87850000000003 3058.8315 296.281 3055.4255 279.00300000000004H3055.7414999999996C3075.8269999999998 317.102 3118.4554999999996 343.297 3176.0074999999997 343.297C3254.2769999999996 343.297 3279.209 300.4575 3279.209 248.6655V41.59699999999998H3205.7149999999997zM3457.4485 36.18950000000001C3383.849 36.18950000000001 3361.622 60.55849999999998 3361.622 126.60900000000004V287.9585000000001H3298.4514999999997V337.36350000000004H3361.622V428.62600000000003L3435.853 445.8670000000001V337.36400000000003H3526.167V287.95900000000006H3435.853V146.34350000000006C3435.853 102.31050000000005 3446.317 90.33650000000006 3481.01 90.33650000000006C3496.32 90.33650000000006 3510.8920000000003 92.16200000000003 3523.3925000000004 94.55000000000007L3529.7135000000003 43.318500000000085C3508.8205000000003 39.21000000000009 3480.4490000000005 36.19100000000009 3457.4490000000005 36.19100000000009zM2915.0045 102.41449999999998L2925.7145 52.516999999999996C2925.7145 52.516999999999996 2873.1485000000002 34.363999999999976 2807.0280000000002 34.363999999999976C2645.2925000000005 29.517499999999984 2571.201 134.43949999999995 2557.7525 150.90799999999996C2545.181 166.253 2485.7345 237.85049999999995 2485.7345 237.85049999999995V41.42199999999991H2412.311V443.1984999999999H2485.7345V256.9529999999999L2641.6415 443.1984999999999H2726.6180000000004L2557.5430000000006 249.8949999999999C2557.5430000000006 249.8949999999999 2602.1380000000004 194.9414999999999 2620.3265000000006 175.1369999999999C2649.682500000001 143.18299999999988 2741.7875000000004 42.510499999999865 2915.0045000000005 102.4154999999999zM2638.726 191.88549999999998C2652.315 177.067 2680.4415 146.48299999999995 2724.0535 126.88900000000001C2727.389 125.44999999999999 2730.761 124.04500000000002 2734.1315 122.78050000000002C2721.5254999999997 140.51300000000003 2713.5895 165.93600000000004 2713.5895 201.43650000000002C2713.5895 250.84250000000003 2734.0955 296.20950000000005 2793.8955 296.20950000000005C2838.1745 296.20950000000005 2865.774 270.68100000000004 2864.3695000000002 228.40400000000002V227.91250000000002C2820.793 229.66800000000003 2778.4800000000005 225.98100000000002 2738.5555000000004 222.39950000000002V183.10650000000004L2936.7745000000004 172.25600000000003C2938.2485000000006 184.72150000000005 2939.6890000000003 206.94950000000003 2939.6890000000003 215.37650000000002C2939.6890000000003 285.5005 2897.3765000000003 343.403 2793.4385 343.403C2684.128 343.403 2637.9530000000004 265.028 2637.9530000000004 201.43650000000002C2637.9530000000004 198.66250000000002 2638.0235000000002 196.06350000000003 2638.0945000000006 193.39550000000003C2638.0945000000006 192.30700000000002 2638.3755000000006 192.27200000000002 2638.7270000000008 191.88550000000004z" />
    <glyph glyph-name="kent-ke"
      unicode="&#xE003;"
      horiz-adv-x="512" d=" M487.072 -0.3734999999999786L497.536 -48.725499999999954C497.536 -48.725499999999954 446.48 -66.2935 382.48 -66.2935C225.74400000000003 -70.96550000000002 153.92000000000002 30.682500000000005 140.88000000000002 46.61850000000004C128.73600000000002 61.46650000000005 71.13600000000002 130.90650000000005 71.13600000000002 130.90650000000005V-59.38149999999996H2.842170943040401e-14V329.80250000000007H71.15200000000003V149.33850000000007L222.22400000000005 329.80250000000007H304.528L140.72000000000003 142.49050000000005C140.72000000000003 142.49050000000005 183.93600000000004 89.27450000000005 201.53600000000003 70.12250000000006C229.98400000000004 39.13050000000004 319.232 -58.421499999999924 487.072 -0.3734999999999218zM219.424 86.29849999999999C232.52800000000002 72.01049999999998 259.808 42.31450000000001 302.096 23.370499999999993C305.296 21.930499999999995 308.576 20.5865 311.856 19.32249999999999C299.584 36.55449999999996 291.968 61.130499999999984 291.968 95.59449999999998C291.968 143.49849999999998 311.79200000000003 187.38649999999996 369.68 187.38649999999996C412.656 187.38649999999996 439.408 162.65049999999997 438.03200000000004 121.72249999999997V121.27449999999999C395.80800000000005 122.98649999999998 354.86400000000003 119.33850000000001 316.12800000000004 115.86649999999997V77.81849999999997L508.192 67.29049999999995C509.568 79.38649999999996 510.976 100.95449999999994 510.976 109.05049999999994C510.976 177.08249999999992 470 233.08249999999992 369.296 233.08249999999992C263.36 233.08249999999992 218.656 157.14649999999995 218.656 95.59449999999993C218.656 92.90649999999994 218.704 90.29849999999993 218.8 87.69049999999993C218.8 86.77849999999995 219.056 86.68249999999995 219.424 86.29849999999993z" />
    <glyph glyph-name="kent-vision"
      unicode="&#xE006;"
      horiz-adv-x="512" d=" M276.1352091540049 350.9819546051398H124.0682798724442V326.9714500093791H276.1352091540049 M124.0682798724442 267.74593884824617H322.5571187394485V291.7564434440068H124.0682798724442V279.7511911461264V267.74593884824617z M51.34526355280435 411.98424310635903V311.65274807728383V211.3212530482086V110.98975801913338V10.658262990058176 M51.34526355280435 -25.358694428812612H141.8852748077284H196.40952916901145H250.9337835302945H305.4580378915776V-16.35475520540234V-7.3508159819921275V1.6531232414181432V10.657062464828357H250.9337835302945H196.40952916901145H141.8852748077284H87.36102044644532V110.98855749390356V211.32005252297876V311.65154755205396V411.98424310635903H155.33716000750331H223.31209904333147H291.2870380791597H359.26317764021763V364.9320577752767V317.87987244419435V270.827687113112V223.77550178202966C360.44809604201845 223.43215156631027 361.58979553554684 223.04798349277812 362.6894766460327 222.63380228850124C363.7891577565185 222.21962108422437 364.8468204839618 221.7766272744326 365.8600637779029 221.31802663665357C366.87330707184395 220.8594259988745 367.8409304070531 220.3852185331083 368.7641343087601 219.90981054211218C369.68733821046715 219.43440255111614 370.56612267867195 218.95659350966048 371.39688613768527 218.48958919527297C372.80390170699684 219.27833427124372 374.3429750515851 220.10189457887827 376.00930407053085 220.8930407053086C377.6756330894766 221.6841868317389 379.46921778278 222.44291877696494 381.3852560495217 223.1032076533484C383.3024948414931 223.7634965297318 385.34098668167326 224.32534233727262 387.4983305196023 224.72151566310268S391.9294691427499 225.3493903582818 394.3185143500281 225.3493903582818C394.3989495404239 225.3493903582818 394.4805852560495 225.348189833052 394.55981992121554 225.34458825736266C394.64025511161134 225.34218720690308 394.72069030200714 225.33858563121373 394.7999249671731 225.33498405552436S394.9595948227349 225.32658037891582 395.03882948790095 225.32297880322648C395.11806415306694 225.31937722753713 395.19849934346274 225.31577565184776 395.27893453385855 225.31337460138818V271.9813918589383V318.6494091164885V365.31622584880887V448H223.31209904333144H155.33716000750326H51.34526355280435 M450.707184393172 134.67732132808106C448.02881260551493 137.06396548489965 444.9830800975427 139.76994935284188 444.3179891202401 141.82524854623898C443.5904708309886 144.0726317764022 444.4392421684487 148.0139561057963 445.253198274245 151.82802476083288C446.53776027011816 157.80543987994753 447.9939973738511 164.5788032264116 444.29637966610386 169.65942599887455C440.56994935284183 174.78686925529922 433.6321140498968 175.48917651472522 427.514237478897 176.10984805852564C423.8430313262052 176.4844119302195 419.68561245544925 176.9045957606453 417.83080097542677 178.2575876946164C416.01560682798726 179.579365972613 414.3540799099606 183.36462202213465 412.890639654849 186.7056837366348C410.4007503282686 192.37816544738322 407.5819170887263 198.80457700243858 401.47364471956485 200.78664415681862C400.3487525792534 201.1516038266742 399.1542299756143 201.33648471206155 397.92129056462204 201.33648471206155C393.24404426936786 201.33648471206155 388.75768148565 198.73134496342152 384.42018383042586 196.21024198086664C380.9962858750704 194.22217220033764 377.4559369724255 192.16687300694053 375.00086287750895 192.16687300694053C372.5433877321328 192.16687300694053 369.00543987994746 194.22217220033764 365.5779403489027 196.21024198086664C361.2416432189083 198.7313449634215 356.7516788595011 201.33648471206155 352.0768336147065 201.33648471206155C350.845094728944 201.33648471206155 349.65057212530485 201.1516038266742 348.5244794597637 200.78664415681862C342.4186081410618 198.80457700243858 339.5949728006003 192.37576439692367 337.1050834740199 186.7056837366348C335.63924216844873 183.3646220221347 333.9789157756519 179.57696492215348 332.1673232039018 178.2575876946164C330.30530857250056 176.9045957606453 326.1478897017446 176.4820108797599 322.4850872256613 176.10984805852564C316.3660101294317 175.48917651472522 309.431776402176 174.78566873006946 305.7029450384544 169.65942599887455C302.00532733070725 164.58240480210094 303.46156443444016 157.80664040517735 304.74492590508356 151.82802476083293C305.5648846370288 148.01395610579635 306.4136559744889 144.07143125117244 305.6801350590884 141.82404802100922C305.01264303132626 139.76994935284188 301.972913149503 137.0639654848997 299.2909397861565 134.67732132808112C294.62689926843 130.52950665916347 289.3421872069031 125.82584880885395 289.3421872069031 119.29979365972616S294.62689926843 108.07248171074855 299.2909397861565 103.92226599137126C301.972913149503 101.5380228850122 305.01624460701566 98.83203901706997 305.68253610954804 96.7755392984431C306.41005439879956 94.52935659350976 305.56368411179903 90.58563121365603 304.74492590508356 86.77276308384921C303.46156443444016 80.79534796473467 302.00532733070725 74.02198461827055 305.7029450384544 68.94016132057783C309.431776402176 63.8127180641531 316.3696117051211 63.11161132995693 322.4850872256613 62.48853873569692C326.15269180266375 62.11397486400301 330.3101106734197 61.697392609266615 332.1673232039018 60.34199962483592C333.98251735134124 59.020221346839264 335.64404426936795 55.234965297317615 337.1074845244795 51.89390358281753C339.5949728006003 46.22262239729889 342.4186081410618 39.79741136747333 348.5244794597637 37.81294316263376C349.65057212530485 37.44678296754836 350.8474957794036 37.264303132620626 352.0792346651661 37.264303132620626C356.7540799099607 37.264303132620626 361.24164321890834 39.86944288126068 365.57794034890276 42.390545863815476C369.003038829488 44.37741511911463 372.54338773213294 46.433914837741554 375.000862877509 46.433914837741554C377.45593697242555 46.433914837741554 380.9950853498406 44.37861564434445 384.4201838304259 42.390545863815476C388.7576814856501 39.86944288126057 393.2464453198275 37.264303132620626 397.9212905646221 37.264303132620626C399.1542299756144 37.264303132620626 400.34875257925347 37.44918401800794 401.4760457700245 37.81294316263376C407.57951603826683 39.79621084224357 410.4007503282687 46.225023447758474 412.8882386043895 51.89510410804735C414.3564809604203 55.23376477208791 416.01560682798737 59.023822922528666 417.8308009754269 60.340799099606215C419.6904145563685 61.69619208403691 423.8478334271245 62.11637591446271 427.5130369536674 62.48853873569698C433.6345151003565 63.11041080472717 440.56634777715266 63.81391858938298 444.29517914087427 68.93896079534807C447.99279684862137 74.01718251735144 446.53655974488856 80.79294691427515 445.25199774901535 86.77156255861951C444.4332395422999 90.58443068842627 443.58446820483977 94.52815606828 444.3191896454701 96.77433877321334C444.98668167323217 98.83083849184027 448.0276120802853 101.53682235978249 450.7059838679424 103.92346651660108C455.3724254361285 108.07128118551873 460.6547364471958 112.77253798536861 460.6547364471958 119.2985931344964S455.3712249108985 130.52950665916342 450.707184393172 134.67732132808106zM374.99846182704937 88.12335396736069C357.77692740573997 88.12335396736069 343.8184205589946 102.08186081410616 343.8184205589946 119.30219471018569C343.8184205589946 136.52132808103545 357.7769274057401 150.47983492778087 374.99846182704937 150.47983492778087C392.2163946726693 150.47983492778087 406.17490151941473 136.52132808103545 406.17490151941473 119.30219471018569C406.17490151941473 102.08186081410616 392.2163946726693 88.12335396736069 374.99846182704937 88.12335396736069z M375.0044644531983 -31.74668917651468C375.0044644531983 -31.74668917651468 416.93040705308573 -63.186043894203635 416.93040705308573 -62.69622960045018V-34.38544363158883V-9.705045957606444V14.975351716375883V39.654548865128504C416.24010504595765 38.553667229412895 415.4777715250422 37.46719189645472 414.63140123804163 36.42513599699868C413.78383042581123 35.38308009754269 412.851022322266 34.38664415681865 411.8173700994185 33.46704183080101C410.783717876571 32.54743950478331 409.6492215344213 31.704670793472133 408.4006752954418 30.97114987807163C407.1509285312324 30.238829487900944 405.78713187019315 29.61215531795159 404.2936784843369 29.128343650347006C403.783455261677 28.96267116863629 403.26842993809794 28.817407615831883 402.7474019883699 28.693753517163714C402.22397298818237 28.568898893265782 401.69694241230536 28.465653723503976 401.1651097355093 28.381616957418828S400.09544175576815 28.236353404614476 399.55400487713376 28.194335021571874S398.4663290189458 28.130707184393145 397.91888951416246 28.130707184393145C396.13490902269746 28.130707184393145 394.41695741887077 28.351603826674136 392.767435753142 28.726167698367988S389.5380228850122 29.631363721628134 388.0277621459389 30.249634214968978S385.07807165634966 31.575014068654923 383.7106734196211 32.30373288313632S381.0491089851811 33.783980491464945 379.8293753517164 34.492290377039865C379.48362408553743 34.693978615644255 379.09105233539674 34.92207840930399 378.67447008066034 35.162183455261584C378.25668730069407 35.39988745075959 377.81849559182143 35.64959669855551 377.3815044081786 35.89090226974298C376.94571374976556 36.133408366160154 376.51112361658227 36.366310260739056 376.1065466141437 36.576402175951955C375.7007690864753 36.785293565935035 375.3238041643219 36.96777340086288 374.99966235227913 37.10943537797789C374.67552054023633 36.96777340086288 374.2985556180829 36.78409304070527 373.89277809041454 36.576402175951955C373.4870005627461 36.366310260739056 373.05361095479265 36.133408366160154 372.6178202963796 35.89090226974298C372.18202963796654 35.64959669855551 371.74263740386414 35.39988745075965 371.3248546238979 35.162183455261584C370.90827236916147 34.923278934533755 370.51450009379096 34.693978615644255 370.1675483023822 34.492290377039865C368.9478146689176 33.783980491464945 367.6536484712061 33.0324516976176 366.28745075970727 32.30373288313632C364.92125304820854 31.575014068654923 363.48182329769264 30.867904708309823 361.97156255861927 30.249634214968978S358.88141061714487 29.101932095291602 357.2318889514161 28.726167698367988C355.5835678109172 28.35160382667408 353.8656162070905 28.130707184393145 352.0828362408553 28.130707184393145L352.0828362408553 28.130707184393145L352.0828362408553 28.130707184393145L352.0828362408553 28.130707184393145L352.0828362408553 28.130707184393145C351.5341962108422 28.130707184393145 350.9891577565184 28.15231663852927 350.44772087788397 28.194335021571874S349.36844869630454 28.298780716563442 348.8354154942786 28.381616957418828S347.77415119114596 28.568898893265782 347.253123241418 28.693753517163714C346.72969424123045 28.818608141061645 346.21466891765135 28.962671168636177 345.7044456949914 29.127143125117186C344.19778653160745 29.616957418870697 342.8267867191895 30.24123053836047 341.5758394297504 30.96874882761199C340.32369161508143 31.697467642093386 339.1915963233913 32.53303320202582 338.16034515100336 33.44423185143495C337.131495029075 34.35663102607384 336.20228850121913 35.34346276495961 335.3607203151377 36.38071656349649C334.51915212905624 37.41676983680355 333.76162070906 38.50204464453196 333.0749202776213 39.606527855936974V-11.54305008441196V-62.692628024760836" />
    <glyph glyph-name="krimson"
      unicode="&#xE00C;"
      horiz-adv-x="512" d=" M335.05100000000004 -64L144.67000000000002 195.39V-64H67.73100000000002V448H144.67000000000002V199.975L346.14 448H436.69L233.33100000000002 199.975L444.27 -64H335.05100000000004z" />
    <glyph glyph-name="library-search"
      unicode="&#xF0AC;"
      horiz-adv-x="512" d=" M8.752 256.65049999999997C-27.727999999999994 120.4905 53.056000000000004 -19.429499999999962 189.20000000000002 -55.925500000000056C325.36 -92.40550000000007 465.264 -11.637500000000045 501.77600000000007 124.52249999999992C538.2560000000001 260.6984999999999 457.48800000000006 400.6024999999999 321.3280000000001 437.09849999999994C185.1520000000001 473.57849999999996 45.248000000000104 392.81049999999993 8.752000000000066 256.65049999999997zM61.2 242.6025C64.56 255.1945 69.024 267.1625 74.512 278.37850000000003L124.848 264.8905C121.136 254.7625 117.888 244.3785 115.056 233.7865S109.84 212.5865 107.984 201.9465L55.87199999999999 215.9305C57.007999999999996 224.8425 58.831999999999994 233.6905 61.199999999999996 242.6025zM106.816 325.9465C130.096 351.5305 159.584 370.60249999999996 192.272 381.3865C175.04 361.1785 159.904 339.0185 147.088 315.1465L106.816 325.9465zM278.928 390.1225L280.576 389.8985L252.94400000000002 286.79449999999997L201.32800000000003 300.61850000000004C221.77600000000004 335.3865 248.20800000000003 365.64250000000004 278.928 390.1225zM333.008 375.8505L334.416 375.2585C348.784 338.6825 356.672 299.2585 356.976 258.9225L305.376 272.76250000000005L333.008 375.8505zM405.104 324.3625C428.032 298.6825 444.128 267.3705 451.50399999999996 233.5785L411.13599999999997 244.3945C412.06399999999996 271.4665 409.90399999999994 298.2345 405.104 324.3625zM455.712 176.23450000000003C454.816 163.77050000000003 452.704 151.17850000000004 449.344 138.5865C446.928 129.6585 443.968 121.13049999999998 440.528 112.84249999999997L388.59200000000004 126.74649999999997C392.22400000000005 136.92249999999996 395.44000000000005 147.29049999999995 398.30400000000003 157.8825C401.136 168.47449999999998 403.48800000000006 179.08249999999998 405.44000000000005 189.6905L455.71200000000005 176.23449999999997zM411.68 64.34649999999999C385.264 31.754500000000007 349.296 8.234499999999969 309.2 -2.96550000000002C331.28 20.698499999999967 350.464 47.37049999999999 366.128 76.57049999999998L411.68 64.34649999999999zM111.776 49.946500000000015C82.65599999999999 79.67450000000002 63.248 118.04250000000002 56.70399999999999 159.49850000000004L102.22399999999999 147.2905C101.23199999999999 114.1705 104.46399999999998 81.33850000000001 111.77599999999998 49.946500000000015zM177.52 250.7785L238.89600000000002 234.34650000000002L222.01600000000002 171.4185L160.656 187.8505C162.38400000000001 198.5225 164.672 209.16250000000002 167.52 219.7545C170.336 230.3145 173.68 240.6825 177.52 250.7785zM291.328 220.2825L352.688 203.8505C350.976 193.1785 348.67199999999997 182.5385 345.84 171.94650000000001C342.99199999999996 161.3705 339.664 150.98650000000004 335.82399999999996 140.9225L274.448 157.35450000000003L291.328 220.28250000000003zM156.352 132.7785L207.96800000000002 118.97050000000002L179.85600000000002 14.058499999999981C164.89600000000002 51.338499999999954 156.65600000000003 91.53049999999996 156.35200000000003 132.7785zM260.416 104.89049999999997L312.032 91.0505C291.13599999999997 55.49849999999998 263.904 24.81049999999999 232.30399999999997 -0.005499999999983629L260.416 104.89050000000003z" />
    <glyph glyph-name="location"
      unicode="&#xF124;"
      horiz-adv-x="402.2857142857143" d=" M400.29257142857136 348.288L217.43542857142853 -17.426285714285655Q212.57142857142853 -27.428571428571388 201.1428571428571 -27.428571428571388Q199.7165714285714 -27.428571428571388 196.86399999999995 -26.8617142857143Q190.57371428571426 -25.435428571428588 186.71542857142853 -20.425142857142873T182.8571428571428 -9.14285714285711V155.42857142857144H18.285714285714253Q11.995428571428539 155.42857142857144 7.003428571428539 159.28685714285717T0.5668571428571109 169.4354285714286T1.7188571428571109 181.43085714285718T10.002285714285682 190.00685714285714L375.71657142857134 372.86400000000003Q379.42857142857133 374.8571428571429 383.9999999999999 374.8571428571429Q391.71657142857134 374.8571428571429 396.85485714285704 369.4262857142857Q401.13371428571423 365.4217142857143 402.1394285714285 359.5702857142857T400.2742857142856 348.288z" />
    <glyph glyph-name="lock"
      unicode="&#xF023;"
      horiz-adv-x="423.7241379310345" d=" M306.0171034482759 215.28717241379312H117.68937931034482V285.09572413793103C117.68937931034482 310.8016551724138 126.88772413793102 332.7293793103448 145.28441379310345 350.9142068965517C163.68110344827588 369.0990344827586 185.8736551724138 378.17379310344825 211.86206896551724 378.17379310344825S260.0430344827586 369.0813793103448 278.439724137931 350.9142068965517C296.8364137931035 332.7293793103448 306.0347586206897 310.8016551724138 306.0347586206897 285.09572413793103V215.28717241379312zM0 180.36524137931036V-29.078068965517275C0 -38.77075862068966 3.442758620689655 -47.033379310344856 10.29296551724138 -53.81296551724142C17.160827586206896 -60.6102068965518 25.49406896551724 -64 35.29268965517241 -64H388.39613793103445C398.19475862068964 -64 406.52799999999996 -60.6102068965518 413.41351724137934 -53.81296551724148C420.2813793103448 -47.03337931034491 423.70648275862067 -38.77075862068972 423.70648275862067 -29.078068965517332V180.36524137931036C423.70648275862067 190.05793103448275 420.263724137931 198.30289655172416 413.41351724137934 205.08248275862073C406.54565517241383 211.86206896551727 398.21241379310345 215.26951724137933 388.39613793103445 215.26951724137933H376.62013793103444V285.09572413793103C376.62013793103444 329.6926896551724 360.4479999999999 368.0044137931034 328.0684137931034 400.01324137931033C295.70648275862067 432.02206896551724 256.9533793103448 448.0176551724138 211.8444137931034 448.0176551724138C166.71779310344823 448.0176551724138 127.98234482758613 432.02206896551724 95.62041379310338 400.01324137931033C63.25848275862062 368.0044137931035 47.06868965517235 329.7103448275862 47.06868965517235 285.09572413793103V215.2871724137931H35.29268965517241C25.494068965517236 215.2871724137931 17.160827586206896 211.87972413793102 10.29296551724138 205.10013793103448S0 190.05793103448275 0 180.36524137931036z" />
    <glyph glyph-name="moodle"
      unicode="&#xE004;"
      horiz-adv-x="620" d=" M576.016 279.1625C550.6239999999999 298.60249999999996 515.9359999999999 307.8985 471.984 307.8985C423.74399999999997 307.8985 390.736 296.9225 372.99199999999996 274.0745C351.84 296.9065 319.712 307.8985 274.864 307.8985C231.74399999999997 307.8985 196.224 298.61850000000004 170.832 279.1625C141.216 257.14650000000006 126.84799999999998 225.8505 126.84799999999998 183.5625V-20.309500000000014H224.976V172.55449999999996C224.976 213.16249999999997 241.888 233.46649999999997 274.864 233.46649999999997C307.856 233.46649999999997 323.936 213.16249999999997 323.936 172.55449999999996V-20.30950000000007H422.88V172.55449999999996C422.88 213.16249999999997 439.824 233.46649999999997 472.816 233.46649999999997C505.792 233.46649999999997 522.704 213.16249999999997 522.704 172.55449999999996V-20.30950000000007H522.7199999999999V-21.141500000000065H620.016V183.56249999999994C620.016 225.85049999999995 605.5999999999999 257.1624999999999 576.016 279.1624999999999zM5.04 271.53049999999996C204.656 271.53049999999996 209.72799999999998 236.8585 411.05600000000004 395.8665C237.64800000000005 378.1225 153.90400000000005 361.1945 5.0400000000000205 271.53049999999996zM220.736 333.2585C222.432 314.6665 218.19199999999998 351.0505 220.736 333.2585zM36.48 58.5865C19.983999999999998 99.80250000000001 -0.14400000000000546 145.59449999999998 23.663999999999994 202.3945C39.23199999999999 149.25849999999997 36.48 108.9545 36.48 58.5865zM28.496 172.98649999999998L19.375999999999998 174.5385C19.375999999999998 174.5385 19.375999999999998 216.3465 19.375999999999998 232.3625C19.375999999999998 249.53050000000002 38.495999999999995 282.4425 35.376 276.8745L44.495999999999995 275.3385C44.495999999999995 275.3385 31.935999999999993 258.3625 28.495999999999995 237.3705C26.799999999999994 227.0025 28.495999999999995 172.98649999999998 28.495999999999995 172.98649999999998z" />
    <glyph glyph-name="pin"
      unicode="&#xF041;"
      horiz-adv-x="292.57142857142856" d=" M219.42857142857142 265.14285714285717Q219.42857142857142 295.424 197.99771428571427 316.8548571428571T146.28571428571428 338.2857142857143T94.57371428571429 316.8548571428571T73.14285714285715 265.14285714285717T94.57371428571429 213.43085714285718T146.28571428571428 192T197.99771428571427 213.43085714285718T219.42857142857142 265.14285714285717zM292.57142857142856 265.14285714285717Q292.57142857142856 234.00228571428573 283.13599999999997 213.9977142857143L179.12685714285712 -7.1497142857142535Q174.55542857142856 -16.585142857142785 165.5588571428571 -21.997714285714267T146.26742857142855 -27.428571428571388T126.97599999999997 -21.997714285714267T113.68228571428568 -7.1497142857142535L9.398857142857114 213.99771428571432Q-0.036571428571457024 234.00228571428573 -0.036571428571457024 265.1428571428572Q-0.036571428571457024 325.7234285714286 42.82514285714282 368.5668571428572T146.2491428571428 411.42857142857144T249.67314285714278 368.5668571428572T292.53485714285705 265.1428571428572z" />
    <glyph glyph-name="sds"
      unicode="&#xF080;"
      horiz-adv-x="511" d=" M219.856 137.632L59.72800000000001 297.632C-19.903999999999996 205.568 -19.903999999999996 69.68 59.72800000000001 -22.367999999999995L219.856 137.632zM320.016 381.472V147.13599999999997L154.38400000000001 -18.56000000000006C191.632 -46.36800000000005 236.88 -64 286.88 -64C411.248 -64 512 36.624000000000024 512 160.94399999999996C512.016 273.87199999999996 428.288 365.376 320.01599999999996 381.472zM256 191.74400000000003V448C186.256 443.68 123.24799999999999 416.992 72.368 375.408L256 191.74400000000003z" />
    <glyph glyph-name="search"
      unicode="&#xF002;"
      horiz-adv-x="475.4285714285714" d=" M329.1428571428571 210.2857142857143Q329.1428571428571 263.1497142857143 291.56571428571425 300.7085714285714T201.14285714285714 338.2857142857143T110.71999999999998 300.7085714285714T73.14285714285712 210.2857142857143T110.71999999999998 119.86285714285714T201.14285714285714 82.28571428571433T291.56571428571425 119.86285714285714T329.1428571428571 210.2857142857143zM475.4285714285714 -27.428571428571388Q475.4285714285714 -42.2765714285714 464.5668571428571 -53.138285714285644T438.85714285714283 -64Q423.424 -64 413.1474285714286 -53.138285714285644L315.15428571428566 44.58057142857149Q264.0091428571428 9.16114285714292 201.16114285714283 9.16114285714292Q160.31085714285712 9.16114285714292 123.0262857142857 25.01485714285718T58.73371428571428 67.87657142857154T15.871999999999996 132.1691428571429T0.01828571428571227 210.30400000000003T15.871999999999996 288.43885714285716T58.73371428571428 352.7314285714286T123.0262857142857 395.5931428571429T201.16114285714283 411.44685714285714T279.296 395.5931428571429T343.5885714285714 352.7314285714286T386.4502857142857 288.43885714285716T402.304 210.30400000000003Q402.304 147.45600000000002 366.8845714285714 96.31085714285723L464.8777142857143 -1.6822857142856833Q475.44685714285714 -12.251428571428505 475.44685714285714 -27.39199999999994z" />
    <glyph glyph-name="spinner"
      unicode="&#xF1CE;"
      horiz-adv-x="512" d=" M98.76114285714304 37.65028571428621C56.6674285714289 79.68914285714294 33.53600000000006 135.53371428571495 33.53600000000006 195.05371428571485C33.53600000000006 317.6960000000005 133.3211428571428 417.53600000000057 256.01828571428524 417.53600000000057L283.830857142857 389.7234285714294L256 361.9108571428572C163.98628571428551 361.9108571428572 89.14285714285714 287.049142857143 89.14285714285714 195.05371428571434C89.14285714285714 150.41828571428573 106.5325714285713 108.47085714285748 138.09371428571413 76.9645714285715L103.93599999999995 72.52114285714305L98.76114285714304 37.65028571428621zM256 -27.428571428571388L228.1874285714288 0.2742857142854973L256 28.196571428570962C347.99542857142865 28.196571428570962 422.85714285714283 103.03999999999985 422.85714285714283 195.0537142857138C422.85714285714283 239.59771428571395 405.4857142857145 281.5268571428569 373.86971428571474 313.069714285714L408.10057142857215 317.56799999999987L413.1840000000011 352.3839999999998C455.2777142857158 310.3451428571425 478.46400000000096 254.46399999999994 478.46400000000096 195.0537142857138C478.4822857142852 72.41142857142825 378.64228571428555 -27.428571428571388 256 -27.428571428571388L256 -27.428571428571388z" />
    <glyph glyph-name="square"
      unicode="&#xF04D;"
      horiz-adv-x="512" d=" M438.85714285714283 393.14285714285717V-9.14285714285711Q438.85714285714283 -16.571428571428555 433.4285714285714 -22T420.57142857142856 -27.428571428571388H18.285714285714285Q10.857142857142856 -27.428571428571388 5.428571428571428 -22T0 -9.14285714285711V393.14285714285717Q0 400.57142857142856 5.428571428571428 406T18.285714285714285 411.42857142857144H420.57142857142856Q428 411.42857142857144 433.4285714285714 406T438.85714285714283 393.14285714285717z" />
    <glyph glyph-name="timetables"
      unicode="&#xE007;"
      horiz-adv-x="512" d=" M512 -64H0V384H64V0H448V384H512zM96 256H160V192H96zM224 256H288V192H224zM352 256H416V192H352zM96 128H160V64H96zM224 128H288V64H224zM352 64V128H416zM128 352V416C128 433.68 142.32 448 160 448S192 433.68 192 416V352C192 334.32 177.68 320 160 320S128 334.32 128 352zM320 352V416C320 433.68 334.32 448 352 448S384 433.68 384 416V352C384 334.32 369.68 320 352 320S320 334.32 320 352z" />
    <glyph glyph-name="twitter"
      unicode="&#xF099;"
      horiz-adv-x="475.4285714285714" d=" M462.848 331.42857142857144Q443.7028571428571 303.4331428571429 416.56685714285715 283.72114285714287Q416.85942857142857 279.71657142857146 416.85942857142857 271.7257142857143Q416.85942857142857 234.58742857142857 405.99771428571427 197.57714285714286T372.99199999999996 126.57371428571429T320.2742857142857 66.43200000000002T246.56457142857144 24.72228571428576T154.27657142857143 9.142857142857167Q76.85485714285716 9.142857142857167 12.562285714285736 50.5782857142857Q22.56457142857145 49.42628571428571 34.85257142857145 49.42628571428571Q99.14514285714287 49.42628571428571 149.43085714285715 88.85028571428569Q119.424 89.41714285714284 95.70742857142857 107.2822857142857T63.140571428571434 152.8502857142857Q72.57600000000001 151.42399999999998 80.56685714285715 151.42399999999998Q92.85485714285714 151.42399999999998 104.85028571428572 154.56914285714288Q72.85028571428573 161.1337142857143 51.85828571428573 186.42285714285714T30.866285714285727 245.13828571428573V246.29028571428574Q50.2857142857143 235.42857142857147 72.57600000000002 234.56914285714288Q53.7234285714286 247.14971428571434 42.56914285714288 267.42857142857144T31.433142857142876 311.4240000000001Q31.433142857142876 336.5668571428572 44.0137142857143 357.9977142857143Q78.59200000000001 315.4285714285715 128.16457142857143 289.8468571428572T234.31314285714285 261.4125714285715Q232.02742857142857 272.2742857142857 232.02742857142857 282.55085714285724Q232.02742857142857 320.8411428571429 259.03542857142855 347.8308571428572T324.3154285714286 374.83885714285725Q364.3245714285714 374.83885714285725 391.73485714285715 345.6914285714287Q422.8754285714286 351.68914285714294 450.304 367.98171428571436Q439.73485714285715 335.1222857142858 409.72799999999995 317.12914285714294Q436.29714285714283 319.98171428571436 462.86628571428565 331.4102857142858z" />
    <glyph glyph-name="user"
      unicode="&#xF007;"
      horiz-adv-x="402.2857142857143" d=" M402.2857142857143 46.573714285714345Q402.2857142857143 12.288000000000011 381.4217142857143 -7.57028571428566T325.9977142857143 -27.42857142857133H76.28800000000004Q41.70971428571433 -27.42857142857133 20.86400000000004 -7.57028571428566T4.060244204343429e-14 46.573714285714345Q4.060244204343429e-14 61.71428571428572 1.0057142857143262 76.14171428571433T5.010285714285755 107.28228571428576T12.580571428571467 138.27657142857146T24.868571428571464 166.1257142857143T42.5874285714286 189.27542857142862T67.01714285714289 204.56228571428574T98.87085714285718 210.28571428571433Q101.44914285714289 210.28571428571433 110.86628571428574 204.14171428571433T132.15085714285715 190.4274285714286T162.99885714285716 176.71314285714288T201.14285714285717 170.56914285714288T239.28685714285717 176.71314285714288T270.13485714285713 190.4274285714286T291.41942857142857 204.14171428571433T303.4148571428571 210.28571428571433Q320.8411428571428 210.28571428571433 335.2685714285714 204.56228571428574T359.6982857142857 189.27542857142862T377.41714285714284 166.1257142857143T389.70514285714285 138.27657142857146T397.2754285714286 107.28228571428576T401.28000000000003 76.14171428571433T402.28571428571433 46.573714285714345zM310.85714285714283 301.7142857142857Q310.85714285714283 256.2925714285715 278.71085714285715 224.1462857142857T201.14285714285714 192T123.57485714285714 224.1462857142857T91.42857142857142 301.7142857142857T123.57485714285714 379.2822857142857T201.14285714285714 411.42857142857144T278.71085714285715 379.2822857142857T310.85714285714283 301.7142857142857z" />
    <glyph glyph-name="wheelchair"
      unicode="&#xF193;"
      horiz-adv-x="475.4285714285714" d=" M292.27885714285713 108.85485714285716L321.4262857142857 50.5782857142857Q304.85942857142857 -0.5668571428571454 261.4308571428571 -32.274285714285725T164.57142857142856 -63.981714285714304Q119.99085714285712 -63.981714285714304 82.13942857142857 -41.837714285714355T22.143999999999995 18.157714285714235T-4.0602442043434294e-15 100.5897142857142Q-4.0602442043434294e-15 152.30171428571418 29.860571428571422 194.87085714285703T108.28799999999998 255.15885714285704L113.15199999999999 217.7279999999999Q78.29942857142856 202.29485714285704 57.43542857142856 170.44114285714272T36.57142857142856 100.5897142857142Q36.57142857142856 47.72571428571416 74.14857142857142 10.166857142857054T164.57142857142856 -27.410285714285806Q200.57599999999996 -27.410285714285806 231.00342857142854 -8.83200000000005T278.14399999999995 41.307428571428545T292.2788571428571 108.8731428571428zM448.85942857142857 80.29257142857142L465.42628571428565 47.725714285714275L392.28342857142854 11.15428571428572Q388.57142857142856 9.161142857142863 384 9.161142857142863Q372.57142857142856 9.161142857142863 367.7074285714286 19.16342857142854L299.4285714285714 155.44685714285714H164.57142857142856Q157.7142857142857 155.44685714285714 152.42971428571428 160.16457142857138T146.28571428571428 171.7394285714285L118.85714285714285 394.3131428571428Q118.29028571428572 398.88457142857135 120.576 406.3085714285714Q124.58057142857143 420.8822857142857 136.8685714285714 429.8788571428571T164.5897142857143 438.87542857142853Q183.44228571428573 438.87542857142853 196.88228571428573 425.4537142857142T210.304 393.1611428571428Q210.304 373.4491428571428 195.45600000000002 359.58857142857136T161.17028571428574 347.7394285714285L171.7394285714286 265.16114285714286H292.5897142857143V228.58971428571425H176.31085714285715L180.88228571428573 192.0182857142857H310.8754285714286Q322.30400000000003 192.0182857142857 327.16800000000006 182.01599999999996L392.32 52.02285714285716z" />
    <glyph glyph-name="academia-edu"
      unicode="&#xE010;"
      horiz-adv-x="512" d=" M513.1306666666667 -52.03199999999998C437.0133333333333 -52.03199999999998 360.8533333333333 -52.03199999999998 284.6933333333333 -52.03199999999998C284.6933333333333 -43.88266666666664 284.6933333333333 -35.626666666666665 284.6933333333333 -27.49866666666668C307.13599999999997 -24.44799999999998 331.3066666666667 -23.29600000000005 338.70933333333335 -5.333333333333314C339.264 38.59200000000004 318.08 60.80000000000007 309.2693333333333 95.33866666666671C250.304 95.33866666666671 191.31733333333332 95.33866666666671 132.37333333333333 95.33866666666671C122.32533333333333 58.09066666666672 58.112 -29.71733333333333 147.0933333333333 -24.981333333333282C147.0933333333333 -34.048 147.0933333333333 -42.94399999999996 147.0933333333333 -51.98933333333326C98.79466666666667 -51.98933333333326 50.47466666666666 -51.98933333333326 2.1759999999999877 -51.98933333333326C2.1759999999999877 -44.60799999999995 2.1759999999999877 -37.33333333333326 2.1759999999999877 -29.845333333333258C7.9359999999999875 -21.311999999999955 26.090666666666653 -22.805333333333294 34.11199999999999 -15.16799999999995C51.96799999999999 1.9413333333333753 62.44266666666665 57.49333333333334 73.42933333333332 85.50400000000008C111.55199999999999 182.86933333333332 156.58666666666664 292.352 191.296 382.784C184.10666666666668 401.728 175.85066666666665 419.6906666666667 169.19466666666668 439.2746666666667C211.7546666666667 439.2746666666667 254.336 439.2746666666667 296.9173333333333 439.2746666666667C338.70933333333335 334.72 385.53600000000006 211.26399999999998 432.02133333333336 95.40266666666673C449.792 51.0293333333334 463.936 -20.394666666666637 513.0453333333332 -27.4346666666666C513.1306666666667 -35.64799999999997 513.1306666666667 -43.903999999999996 513.1306666666667 -52.03199999999998zM149.61066666666665 144.44800000000004C195.45599999999996 144.44800000000004 241.3226666666667 144.44800000000004 287.1253333333333 144.44800000000004C265.0453333333333 205.0986666666667 242.112 264.85333333333335 215.89333333333332 321.34400000000005C195.88266666666667 260.30933333333337 170.81599999999997 204.288 149.61066666666665 144.44800000000004z" />
    <glyph glyph-name="angle-down"
      unicode="&#xF107;"
      horiz-adv-x="329.1428571428571" d=" M307.14514285714284 237.71428571428572Q307.14514285714284 234.00228571428573 304.2925714285714 231.1497142857143L171.15428571428575 98.01142857142855Q168.30171428571433 95.15885714285719 164.58971428571434 95.15885714285719T158.0251428571429 98.01142857142855L24.886857142857203 231.14971428571425Q22.034285714285776 234.0022857142857 22.034285714285776 237.7142857142857T24.886857142857203 244.27885714285713L39.16800000000006 258.56Q42.02057142857149 261.4125714285714 45.73257142857149 261.4125714285714T52.297142857142916 258.56L164.58971428571434 146.26742857142858L276.88228571428573 258.56Q279.7348571428572 261.4125714285714 283.4468571428572 261.4125714285714T290.0114285714286 258.56L304.2925714285714 244.27885714285713Q307.14514285714284 241.42628571428568 307.14514285714284 237.7142857142857z" />
    <glyph glyph-name="angle-left"
      unicode="&#xF104;"
      horiz-adv-x="182.85714285714283" d=" M179.14514285714287 292.57142857142856Q179.14514285714287 288.85942857142857 176.29257142857142 286.00685714285714L64 173.71428571428572L176.29257142857142 61.42171428571436Q179.14514285714287 58.569142857142936 179.14514285714287 54.85714285714289T176.29257142857142 48.29257142857142L162.01142857142855 34.01142857142861Q159.1588571428571 31.158857142857187 155.4468571428571 31.158857142857187T148.8822857142857 34.01142857142861L15.743999999999994 167.14971428571425Q12.891428571428566 170.00228571428573 12.891428571428566 173.71428571428572T15.743999999999994 180.27885714285713L148.8822857142857 313.41714285714284Q151.73485714285712 316.26971428571426 155.4468571428571 316.26971428571426T162.01142857142855 313.41714285714284L176.29257142857142 299.13599999999997Q179.14514285714287 296.28342857142854 179.14514285714287 292.57142857142856z" />
    <glyph glyph-name="angle-right"
      unicode="&#xF105;"
      horiz-adv-x="182.85714285714283" d=" M170.0022857142857 173.71428571428572Q170.0022857142857 170.00228571428573 167.14971428571428 167.1497142857143L34.011428571428574 34.01142857142861Q31.158857142857148 31.158857142857187 27.446857142857148 31.158857142857187T20.882285714285718 34.01142857142861L6.601142857142863 48.29257142857142Q3.7485714285714344 51.145142857142844 3.7485714285714344 54.85714285714289T6.601142857142863 61.42171428571436L118.8937142857143 173.71428571428578L6.601142857142869 286.00685714285714Q3.74857142857144 288.8594285714286 3.74857142857144 292.5714285714286T6.601142857142869 299.1360000000001L20.88228571428573 313.4171428571429Q23.734857142857155 316.2697142857143 27.446857142857155 316.2697142857143T34.01142857142858 313.4171428571429L167.14971428571428 180.2788571428572Q170.0022857142857 177.42628571428577 170.0022857142857 173.71428571428578z" />
    <glyph glyph-name="angle-up"
      unicode="&#xF106;"
      horiz-adv-x="329.1428571428571" d=" M307.14514285714284 109.71428571428572Q307.14514285714284 106.00228571428573 304.2925714285714 103.14971428571425L290.01142857142855 88.86857142857144Q287.15885714285713 86.01600000000002 283.44685714285714 86.01600000000002T276.88228571428573 88.86857142857144L164.5897142857143 201.16114285714286L52.29714285714287 88.86857142857144Q49.44457142857144 86.01600000000002 45.73257142857145 86.01600000000002T39.16800000000002 88.86857142857144L24.88685714285716 103.14971428571425Q22.034285714285733 106.00228571428568 22.034285714285733 109.71428571428572T24.88685714285716 116.27885714285719L158.02514285714287 249.4171428571429Q160.87771428571432 252.26971428571431 164.5897142857143 252.26971428571431T171.15428571428572 249.4171428571429L304.2925714285714 116.27885714285719Q307.14514285714284 113.42628571428577 307.14514285714284 109.71428571428572z" />
    <glyph glyph-name="backward"
      unicode="&#xF04A;"
      horiz-adv-x="512" d=" M462.576 407.712Q468 413.136 471.71200000000005 411.424T475.42400000000004 402.288V-18.28800000000001Q475.42400000000004 -25.71199999999999 471.71200000000005 -27.424000000000035T462.576 -23.712000000000046L259.712 179.15199999999993Q257.424 181.72799999999995 256 184.5759999999999V-18.288000000000125Q256 -25.712000000000103 252.288 -27.42400000000015T243.15200000000002 -23.71200000000016L40.28800000000001 179.15199999999982Q34.86400000000001 184.5759999999998 34.86400000000001 192.01599999999982T40.28800000000001 204.87999999999982L243.15200000000002 407.7439999999998Q248.57600000000002 413.16799999999984 252.288 411.45599999999985T256 402.3199999999998V199.45599999999985Q257.424 202.59199999999984 259.712 204.87999999999985z" />
    <glyph glyph-name="ban"
      unicode="&#xF05E;"
      horiz-adv-x="512" d=" M374.85714285714283 192.8594285714286Q374.85714285714283 238.86628571428574 350.0068571428571 277.13828571428576L134.58285714285708 61.98857142857145Q173.7325714285714 36.553142857142916 219.44685714285708 36.553142857142916Q251.15428571428566 36.553142857142916 279.8811428571428 48.98742857142861T329.45371428571417 82.26742857142864T362.60571428571416 132.1325714285715T374.89371428571417 192.84114285714293zM89.43542857142857 107.42857142857144L305.15200000000004 322.8525714285714Q266.5874285714286 348.85485714285716 219.42857142857147 348.85485714285716Q177.15200000000007 348.85485714285716 141.42171428571433 327.9908571428572T84.84571428571435 271.14057142857143T63.98171428571436 192.8594285714286Q63.98171428571436 146.57828571428576 89.41714285714293 107.42857142857144zM438.85714285714283 192.8594285714286Q438.85714285714283 148.00457142857147 421.4308571428571 107.13600000000002T374.71085714285715 36.84571428571434T304.7131428571429 -10.002285714285676T219.42857142857144 -27.428571428571388T134.14400000000003 -10.002285714285676T64.14628571428575 36.84571428571434T17.42628571428575 107.13600000000002T3.857231994126258e-14 192.8594285714286T17.42628571428575 278.4365714285715T64.14628571428575 348.58057142857143T134.14400000000003 395.42857142857144T219.42857142857144 412.85485714285716T304.7131428571429 395.42857142857144T374.71085714285715 348.58057142857143T421.4308571428571 278.4365714285715T438.85714285714283 192.8594285714286z" />
    <glyph glyph-name="calendar"
      unicode="&#xF073;"
      horiz-adv-x="475.4285714285714" d=" M36.57142857142857 -27.428571428571388H118.85714285714285V54.85714285714289H36.57142857142857V-27.428571428571388zM137.14285714285714 -27.428571428571388H228.57142857142856V54.85714285714289H137.14285714285714V-27.428571428571388zM36.57142857142857 73.14285714285717H118.85714285714285V164.5714285714286H36.57142857142857V73.14285714285717zM137.14285714285714 73.14285714285717H228.57142857142856V164.5714285714286H137.14285714285714V73.14285714285717zM36.57142857142857 182.8571428571429H118.85714285714285V265.14285714285717H36.57142857142857V182.8571428571429zM246.85714285714283 -27.428571428571388H338.2857142857143V54.85714285714289H246.85714285714283V-27.428571428571388zM137.14285714285714 182.8571428571429H228.57142857142856V265.14285714285717H137.14285714285714V182.8571428571429zM356.57142857142856 -27.428571428571388H438.85714285714283V54.85714285714289H356.57142857142856V-27.428571428571388zM246.85714285714283 73.14285714285717H338.2857142857143V164.5714285714286H246.85714285714283V73.14285714285717zM146.28571428571428 320V402.2857142857143Q146.28571428571428 405.99771428571427 143.57942857142856 408.7222857142857T137.14285714285714 411.42857142857144H118.85714285714285Q115.14514285714284 411.42857142857144 112.42057142857142 408.7222857142857T109.71428571428571 402.2857142857143V320Q109.71428571428571 316.288 112.42057142857142 313.5634285714286T118.85714285714285 310.8571428571429H137.14285714285714Q140.85485714285713 310.8571428571429 143.57942857142856 313.5634285714286T146.28571428571428 320zM356.57142857142856 73.14285714285717H438.85714285714283V164.5714285714286H356.57142857142856V73.14285714285717zM246.85714285714283 182.8571428571429H338.2857142857143V265.14285714285717H246.85714285714283V182.8571428571429zM356.57142857142856 182.8571428571429H438.85714285714283V265.14285714285717H356.57142857142856V182.8571428571429zM365.71428571428567 320V402.2857142857143Q365.71428571428567 405.99771428571427 363.008 408.7222857142857T356.57142857142856 411.42857142857144H338.2857142857143Q334.5737142857143 411.42857142857144 331.84914285714285 408.7222857142857T329.1428571428571 402.2857142857143V320Q329.1428571428571 316.288 331.84914285714285 313.5634285714286T338.2857142857143 310.8571428571429H356.57142857142856Q360.28342857142854 310.8571428571429 363.008 313.5634285714286T365.71428571428567 320zM475.4285714285714 338.2857142857143V-27.428571428571388Q475.4285714285714 -42.2765714285714 464.5668571428571 -53.138285714285644T438.85714285714283 -64H36.57142857142857Q21.72342857142857 -64 10.861714285714287 -53.138285714285644T2.0301221021717147e-15 -27.428571428571388V338.2857142857143Q2.0301221021717147e-15 353.1337142857143 10.861714285714287 363.9954285714286T36.57142857142857 374.8571428571429H73.14285714285714V402.2857142857143Q73.14285714285714 421.1382857142857 86.56457142857143 434.5782857142857T118.85714285714285 448H137.14285714285714Q155.99542857142856 448 169.43542857142856 434.5782857142857T182.85714285714283 402.2857142857143V374.8571428571429H292.57142857142856V402.2857142857143Q292.57142857142856 421.1382857142857 305.99314285714286 434.5782857142857T338.2857142857143 448H356.57142857142856Q375.424 448 388.8639999999999 434.5782857142857T402.2857142857143 402.2857142857143V374.8571428571429H438.85714285714283Q453.70514285714285 374.8571428571429 464.5668571428571 363.9954285714286T475.4285714285714 338.2857142857143z" />
    <glyph glyph-name="camera"
      unicode="&#xF030;"
      horiz-adv-x="548.5714285714286" d=" M274.2857142857143 256Q308.29714285714283 256 332.4342857142857 231.86285714285714T356.57142857142856 173.71428571428572T332.4342857142857 115.56571428571431T274.2857142857143 91.42857142857144T216.13714285714286 115.56571428571431T192 173.71428571428572T216.13714285714286 231.86285714285714T274.2857142857143 256zM475.4285714285714 374.8571428571429Q505.70971428571426 374.8571428571429 527.1405714285714 353.4262857142857T548.5714285714286 301.7142857142857V45.71428571428572Q548.5714285714286 15.433142857142911 527.1405714285714 -5.997714285714267T475.4285714285714 -27.428571428571388H73.14285714285714Q42.86171428571429 -27.428571428571388 21.430857142857146 -5.997714285714267T4.0602442043434294e-15 45.71428571428572V301.7142857142857Q4.0602442043434294e-15 331.9954285714286 21.430857142857146 353.4262857142857T73.14285714285714 374.85714285714283H137.14285714285714L151.6982857142857 413.69599999999997Q157.1108571428571 427.7028571428571 171.5565714285714 437.83314285714283T201.14285714285714 447.96342857142855H347.4285714285714Q362.5691428571428 447.96342857142855 377.01485714285707 437.83314285714283T396.8731428571428 413.69599999999997L411.42857142857133 374.85714285714283H475.42857142857133zM274.2857142857143 45.71428571428572Q327.13142857142856 45.71428571428572 364.7268571428571 83.27314285714283T402.2857142857142 173.71428571428572T364.7268571428571 264.15542857142856T274.2857142857142 301.71428571428567T183.84457142857138 264.15542857142856T146.28571428571425 173.71428571428572T183.84457142857138 83.27314285714283T274.2857142857142 45.71428571428572z" />
    <glyph glyph-name="captions-off"
      unicode="&#xE00E;"
      horiz-adv-x="512" d=" M483.55555555555554 391.1111111111111V78.22222222222223H352.7111111111111H340.9351111111111L332.6008888888889 69.88800000000003L255.94311111111114 -6.655999999999949L179.39911111111113 69.88800000000003L171.06488888888887 78.22222222222223H159.28888888888886H28.444444444444443V391.1111111111111H483.55555555555554M483.55555555555554 419.55555555555554H28.444444444444443C11.377777777777778 419.55555555555554 0 408.1777777777778 0 391.1111111111111V78.22222222222223C0 61.155555555555566 11.377777777777778 49.77777777777783 28.444444444444443 49.77777777777783H159.28888888888886L236.0888888888889 -27.022222222222183C241.77777777777777 -32.71111111111105 247.46666666666664 -35.55555555555554 256 -35.55555555555554S270.22222222222223 -32.71111111111105 275.9111111111111 -27.022222222222183L352.71111111111105 49.77777777777783H483.55555555555554C500.62222222222226 49.77777777777783 512 61.155555555555566 512 78.22222222222223V391.1111111111111C512 408.1777777777778 500.62222222222226 419.55555555555554 483.55555555555554 419.55555555555554L483.55555555555554 419.55555555555554z M157.01333333333332 130.84444444444443C213.61777777777775 130.84444444444443 242.63111111111107 168.39111111111112 250.31111111111107 199.39555555555557L213.61777777777775 210.4888888888889C208.21333333333334 191.71555555555557 191.4311111111111 169.2444444444444 157.01333333333332 169.2444444444444C124.58666666666666 169.2444444444444 94.43555555555554 192.85333333333332 94.43555555555554 235.80444444444444C94.43555555555554 281.6 126.29333333333331 303.21777777777777 156.44444444444443 303.21777777777777C191.4311111111111 303.21777777777777 207.07555555555555 281.8844444444444 211.9111111111111 262.5422222222222L248.88888888888889 274.20444444444445C240.92444444444445 306.91555555555556 212.19555555555553 341.0488888888889 156.44444444444443 341.0488888888889C102.39999999999999 341.0488888888889 53.76 300.08888888888896 53.76 235.80444444444447S100.69333333333333 130.84444444444443 157.01333333333332 130.84444444444443z M372.3377777777778 130.84444444444443C428.9422222222222 130.84444444444443 457.9555555555556 168.39111111111112 465.6355555555556 199.39555555555557L428.94222222222226 210.4888888888889C423.5662222222222 191.71555555555557 406.75555555555553 169.2444444444444 372.3377777777778 169.2444444444444C339.9111111111111 169.2444444444444 309.78844444444445 192.85333333333332 309.78844444444445 235.80444444444444C309.78844444444445 281.6 341.61777777777775 303.21777777777777 371.7973333333333 303.21777777777777C406.75555555555553 303.21777777777777 422.4 281.8844444444444 427.2355555555555 262.5422222222222L464.2417777777777 274.20444444444445C456.2773333333332 306.91555555555556 427.5199999999999 341.0488888888889 371.79733333333326 341.0488888888889C317.7528888888888 341.0488888888889 269.11288888888885 300.0888888888889 269.11288888888885 235.80444444444444S315.9893333333333 130.84444444444443 372.3377777777778 130.84444444444443z" />
    <glyph glyph-name="captions"
      unicode="&#xE00D;"
      horiz-adv-x="512" d=" M483.55555555555554 419.55555555555554H28.444444444444443C11.377777777777778 419.55555555555554 0 408.1777777777778 0 391.1111111111111V78.22222222222223C0 61.155555555555566 11.377777777777778 49.77777777777783 28.444444444444443 49.77777777777783H159.28888888888886L236.0888888888889 -27.022222222222183C241.77777777777777 -32.71111111111105 247.46666666666664 -35.55555555555554 256 -35.55555555555554S270.22222222222223 -32.71111111111105 275.9111111111111 -27.022222222222183L352.71111111111105 49.77777777777783H483.55555555555554C500.62222222222226 49.77777777777783 512 61.155555555555566 512 78.22222222222223V391.1111111111111C512 408.1777777777778 500.62222222222226 419.55555555555554 483.55555555555554 419.55555555555554zM157.01333333333332 130.84444444444443C100.69333333333331 130.84444444444443 53.75999999999999 171.54844444444444 53.75999999999999 235.80444444444444S102.39999999999998 341.0488888888889 156.44444444444443 341.0488888888889C212.19555555555553 341.0488888888889 240.92444444444445 306.91555555555556 248.88888888888889 274.20444444444445L211.9111111111111 262.5422222222222C207.07555555555555 281.88444444444445 191.4311111111111 303.21777777777777 156.44444444444443 303.21777777777777C126.29333333333331 303.21777777777777 94.43555555555555 281.6 94.43555555555555 235.80444444444447C94.43555555555555 192.85333333333332 124.58666666666666 169.2444444444444 157.01333333333332 169.2444444444444C191.43111111111108 169.2444444444444 208.2133333333333 191.7155555555555 213.61777777777775 210.48888888888885L250.31111111111113 199.39555555555557C242.63111111111107 168.39111111111112 213.61777777777775 130.84444444444443 157.01333333333332 130.84444444444443zM372.3377777777778 130.84444444444443C316.0177777777777 130.84444444444443 269.08444444444444 171.54844444444444 269.08444444444444 235.80444444444444S317.7244444444445 341.0488888888889 371.76888888888885 341.0488888888889C427.4915555555555 341.0488888888889 456.2488888888888 306.91555555555556 464.2133333333333 274.20444444444445L427.2355555555555 262.5422222222222C422.4 281.88444444444445 406.7555555555555 303.21777777777777 371.7973333333333 303.21777777777777C341.61777777777775 303.21777777777777 309.78844444444445 281.6 309.78844444444445 235.80444444444447C309.78844444444445 192.85333333333332 339.93955555555556 169.2444444444444 372.3377777777778 169.2444444444444C406.75555555555553 169.2444444444444 423.5662222222222 191.7155555555555 428.9422222222222 210.48888888888885L465.6355555555556 199.39555555555552C457.9555555555556 168.39111111111112 428.9422222222222 130.84444444444443 372.3377777777778 130.84444444444443z" />
    <glyph glyph-name="caret-down"
      unicode="&#xF0D7;"
      horiz-adv-x="292.57142857142856" d=" M292.57142857142856 246.85714285714286Q292.57142857142856 239.43314285714285 287.1405714285714 234.00228571428573L159.1405714285714 106.00228571428573Q153.70971428571426 100.57142857142861 146.28571428571425 100.57142857142861T133.43085714285712 106.00228571428573L5.430857142857121 234.00228571428573Q-2.1316282072803006e-14 239.43314285714288 -2.1316282072803006e-14 246.85714285714286T5.430857142857121 259.712T18.285714285714263 265.14285714285717H274.2857142857142Q281.70971428571426 265.14285714285717 287.1405714285714 259.712T292.5714285714285 246.85714285714286z" />
    <glyph glyph-name="caret-left"
      unicode="&#xF0D9;"
      horiz-adv-x="182.85714285714283" d=" M182.85714285714283 320V64Q182.85714285714283 56.57600000000002 177.42628571428568 51.1451428571429T164.57142857142856 45.71428571428572T151.71657142857143 51.1451428571429L23.716571428571438 179.1451428571429Q18.285714285714295 184.57600000000002 18.285714285714295 192T23.716571428571438 204.85485714285716L151.71657142857143 332.85485714285716Q157.14742857142858 338.2857142857143 164.57142857142856 338.2857142857143T177.42628571428568 332.85485714285716T182.85714285714283 320z" />
    <glyph glyph-name="caret-right"
      unicode="&#xF0DA;"
      horiz-adv-x="182.85714285714283" d=" M164.57142857142856 192Q164.57142857142856 184.57600000000002 159.1405714285714 179.1451428571429L31.140571428571416 51.1451428571429Q25.709714285714274 45.71428571428572 18.285714285714274 45.71428571428572T5.430857142857133 51.1451428571429T-9.135549459772716e-15 64V320Q-9.135549459772716e-15 327.424 5.430857142857133 332.85485714285716T18.285714285714274 338.2857142857143T31.140571428571416 332.85485714285716L159.1405714285714 204.85485714285716Q164.57142857142856 199.42399999999998 164.57142857142856 192z" />
    <glyph glyph-name="caret-up"
      unicode="&#xF0D8;"
      horiz-adv-x="292.57142857142856" d=" M292.57142857142856 100.57142857142861Q292.57142857142856 93.14742857142863 287.1405714285714 87.71657142857146T274.2857142857143 82.28571428571433H18.285714285714285Q10.861714285714285 82.28571428571433 5.4308571428571435 87.71657142857146T1.0150610510858574e-15 100.57142857142861T5.4308571428571435 113.42628571428571L133.43085714285712 241.4262857142857Q138.86171428571427 246.85714285714286 146.28571428571428 246.85714285714286T159.1405714285714 241.4262857142857L287.1405714285714 113.42628571428571Q292.57142857142856 107.99542857142859 292.57142857142856 100.57142857142861z" />
    <glyph glyph-name="check-circle"
      unicode="&#xF05D;"
      horiz-adv-x="512" d=" M334.5737142857143 215.71657142857146L213.99771428571427 95.14057142857143Q208.56685714285712 89.70971428571426 201.14285714285714 89.70971428571426T188.288 95.14057142857143L104.28342857142857 179.1451428571429Q98.85257142857144 184.57600000000002 98.85257142857144 192T104.28342857142857 204.85485714285716L133.43085714285715 234.0022857142857Q138.86171428571427 239.43314285714285 146.28571428571428 239.43314285714285T159.1405714285714 234.0022857142857L201.14285714285714 192L279.7165714285714 270.57371428571423Q285.1474285714286 276.00457142857135 292.57142857142856 276.00457142857135T305.4262857142857 270.57371428571423L334.5737142857143 241.42628571428568Q340.0045714285714 235.99542857142853 340.0045714285714 228.57142857142856T334.5737142857143 215.71657142857143zM374.85714285714283 192Q374.85714285714283 234.27657142857143 353.99314285714286 270.00685714285714T297.41714285714284 326.58285714285716T219.41028571428572 347.44685714285714T141.40342857142858 326.58285714285716T84.82742857142858 270.00685714285714T63.96342857142859 192T84.82742857142858 113.99314285714291T141.40342857142858 57.41714285714289T219.41028571428572 36.553142857142916T297.41714285714284 57.41714285714289T353.99314285714286 113.99314285714291T374.85714285714283 192.00000000000006zM438.85714285714283 192Q438.85714285714283 132.2788571428572 409.43542857142853 81.86514285714287T329.5817142857142 2.0114285714286098T219.44685714285708 -27.41028571428575T109.31199999999995 2.0114285714286098T29.458285714285676 81.86514285714287T0.03657142857139206 192T29.458285714285676 302.1348571428572T109.31199999999995 381.98857142857145T219.44685714285708 411.4102857142857T329.5817142857142 381.98857142857145T409.43542857142853 302.1348571428572T438.85714285714283 192z" />
    <glyph glyph-name="check"
      unicode="&#xF00C;"
      horiz-adv-x="512" d=" M477.4217142857143 286.28114285714287Q477.4217142857143 274.8525714285714 469.4125714285715 266.86171428571436L223.68914285714288 21.1382857142857Q215.68 13.129142857142881 204.26971428571431 13.129142857142881T184.85028571428577 21.1382857142857L42.56914285714293 163.41942857142857Q34.560000000000066 171.4285714285714 34.560000000000066 182.83885714285708T42.56914285714293 202.25828571428565L81.42628571428578 241.1154285714285Q89.43542857142863 249.1245714285714 100.84571428571435 249.1245714285714T120.26514285714293 241.1154285714285L204.26971428571437 156.8365714285714L391.6982857142858 344.5577142857142Q399.70742857142864 352.5668571428571 411.1177142857144 352.5668571428571T430.537142857143 344.5577142857142L469.39428571428584 305.7005714285714Q477.40342857142866 297.7097142857142 477.40342857142866 286.2811428571428z" />
    <glyph glyph-name="chevron-down-square"
      unicode="&#xE00B;"
      horiz-adv-x="512" d=" M0.004 -64.00199999999995H512V448.002H0.004V-64.00199999999995zM363.762 281.336C366.324 283.91 369.373 285.19500000000005 372.891 285.19500000000005C376.408 285.19500000000005 379.457 283.91 382.02000000000004 281.336L415.71700000000004 247.64800000000002C418.27900000000005 245.086 419.571 242.03600000000003 419.571 238.51900000000003S418.278 231.96300000000002 415.71700000000004 229.39000000000004L265.13700000000006 78.81000000000006C262.56500000000005 76.23700000000008 259.51400000000007 74.95600000000007 255.99600000000007 74.95600000000007C252.47900000000007 74.95600000000007 249.44000000000005 76.23500000000007 246.86700000000008 78.81000000000006L96.288 229.39C93.715 231.963 92.434 235.00199999999998 92.434 238.51899999999998S93.715 245.08599999999998 96.288 247.64799999999997L129.974 281.337C132.547 283.90999999999997 135.58599999999998 285.19499999999994 139.10299999999998 285.19499999999994S145.67 283.90999999999997 148.24399999999997 281.337L255.99599999999998 173.58099999999996L363.762 281.336z" />
    <glyph glyph-name="chevron-left-square"
      unicode="&#xE008;"
      horiz-adv-x="512" d=" M0 447.998V-63.99799999999999H512.004V447.998H0zM345.338 84.24000000000001C347.91200000000003 81.67900000000003 349.19800000000004 78.62900000000002 349.19800000000004 75.11099999999999C349.19800000000004 71.59499999999997 347.91200000000003 68.54500000000002 345.338 65.98199999999997L311.65000000000003 32.28499999999997C309.088 29.72399999999999 306.03700000000003 28.430999999999983 302.521 28.430999999999983C299.004 28.430999999999983 295.96500000000003 29.72399999999999 293.392 32.28499999999997L142.81199999999998 182.865C140.23899999999998 185.438 138.95799999999997 188.48900000000003 138.95799999999997 192.006S140.23799999999997 198.562 142.81199999999998 201.135L293.392 351.714C295.965 354.287 299.004 355.568 302.521 355.568C306.03700000000003 355.568 309.088 354.287 311.65000000000003 351.714L345.33900000000006 318.028C347.91200000000003 315.455 349.19800000000004 312.416 349.19800000000004 308.899S347.91200000000003 302.332 345.33900000000006 299.75800000000004L237.583 192.006L345.338 84.24000000000001z" />
    <glyph glyph-name="chevron-right-square"
      unicode="&#xE009;"
      horiz-adv-x="512" d=" M0 447.998V-63.99799999999999H512.004V447.998H0zM369.191 182.865L218.61099999999996 32.286C216.03799999999995 29.713000000000022 212.99899999999997 28.432000000000016 209.48199999999997 28.432000000000016C205.96599999999998 28.432000000000016 202.91499999999996 29.713000000000022 200.35299999999998 32.286L166.66499999999996 65.97199999999998C164.09099999999995 68.54499999999996 162.80499999999995 71.584 162.80499999999995 75.101S164.09099999999995 81.668 166.66499999999996 84.24200000000002L274.41999999999996 191.995L166.666 299.759C164.09199999999998 302.321 162.80599999999998 305.371 162.80599999999998 308.888S164.09199999999998 315.455 166.666 318.01699999999994L200.35399999999998 351.71399999999994C202.916 354.27599999999995 205.96699999999998 355.568 209.48299999999998 355.568C212.99999999999997 355.568 216.039 354.275 218.61199999999997 351.71399999999994L369.192 201.13499999999996C371.765 198.56199999999995 373.046 195.51099999999997 373.046 191.99399999999997S371.765 185.438 369.191 182.865z" />
    <glyph glyph-name="chevron-up-square"
      unicode="&#xE00A;"
      horiz-adv-x="512" d=" M512 448.002H0.004V-64.00200000000007H512V448.002zM148.242 102.66399999999999C145.67999999999998 100.08999999999997 142.631 98.805 139.113 98.805C135.596 98.805 132.547 100.09000000000003 129.984 102.66399999999999L96.287 136.35199999999998C93.72500000000001 138.914 92.433 141.964 92.433 145.481S93.72600000000001 152.03699999999998 96.287 154.61L246.86700000000002 305.19000000000005C249.43900000000002 307.76300000000003 252.49 309.04400000000004 256.00800000000004 309.04400000000004S262.56500000000005 307.76500000000004 265.13700000000006 305.19000000000005L415.71600000000007 154.61C418.28900000000004 152.03700000000003 419.57000000000005 148.998 419.57000000000005 145.481S418.28900000000004 138.914 415.71600000000007 136.35199999999998L382.02900000000005 102.66299999999995C379.45700000000005 100.08999999999997 376.41800000000006 98.80499999999995 372.90000000000003 98.80499999999995C369.38300000000004 98.80499999999995 366.33400000000006 100.08999999999997 363.759 102.66299999999995L256.008 210.419L148.242 102.66399999999999z" />
    <glyph glyph-name="clock"
      unicode="&#xF017;"
      horiz-adv-x="512" d=" M256 292.57142857142856V164.5714285714286Q256 160.56685714285715 253.42171428571427 158.00685714285714T246.85714285714283 155.42857142857144H155.42857142857142Q151.424 155.42857142857144 148.864 158.00685714285714T146.28571428571428 164.5714285714286V182.8571428571429Q146.28571428571428 186.8617142857143 148.864 189.4217142857143T155.42857142857142 192H219.42857142857142V292.57142857142856Q219.42857142857142 296.576 222.00685714285714 299.13599999999997T228.57142857142856 301.7142857142857H246.85714285714283Q250.86171428571427 301.7142857142857 253.42171428571427 299.13599999999997T256 292.57142857142856zM374.85714285714283 192Q374.85714285714283 234.27657142857143 353.99314285714286 270.00685714285714T297.41714285714284 326.58285714285716T219.41028571428572 347.44685714285714T141.40342857142858 326.58285714285716T84.82742857142858 270.00685714285714T63.96342857142859 192T84.82742857142858 113.99314285714291T141.40342857142858 57.41714285714289T219.41028571428572 36.553142857142916T297.41714285714284 57.41714285714289T353.99314285714286 113.99314285714291T374.85714285714283 192.00000000000006zM438.85714285714283 192Q438.85714285714283 132.2788571428572 409.43542857142853 81.86514285714287T329.5817142857142 2.0114285714286098T219.44685714285708 -27.41028571428575T109.31199999999995 2.0114285714286098T29.458285714285676 81.86514285714287T0.03657142857139206 192T29.458285714285676 302.1348571428572T109.31199999999995 381.98857142857145T219.44685714285708 411.4102857142857T329.5817142857142 381.98857142857145T409.43542857142853 302.1348571428572T438.85714285714283 192z" />
    <glyph glyph-name="close-circle"
      unicode="&#xF101;"
      horiz-adv-x="512" d=" M313.43542857142853 139.72114285714287L271.7257142857142 98.01142857142855Q268.8731428571428 95.15885714285719 265.1611428571428 95.15885714285719T258.5965714285714 98.01142857142855L219.44685714285708 137.1611428571428L180.2971428571428 98.01142857142855Q177.44457142857138 95.15885714285719 173.7325714285714 95.15885714285719T167.16799999999995 98.01142857142855L125.45828571428565 139.72114285714287Q122.60571428571423 142.57371428571423 122.60571428571423 146.28571428571428T125.45828571428565 152.85028571428575L164.60799999999995 192.00000000000006L125.45828571428565 231.14971428571434Q122.60571428571423 234.00228571428576 122.60571428571423 237.71428571428575T125.45828571428565 244.2788571428572L167.16799999999995 285.9885714285715Q170.0205714285714 288.8411428571429 173.7325714285714 288.8411428571429T180.2971428571428 285.9885714285715L219.44685714285708 246.8388571428572L258.5965714285714 285.9885714285715Q261.4491428571428 288.8411428571429 265.1611428571428 288.8411428571429T271.7257142857142 285.9885714285715L313.43542857142853 244.2788571428572Q316.28799999999995 241.42628571428574 316.28799999999995 237.71428571428575T313.43542857142853 231.14971428571434L274.2857142857142 192.00000000000006L313.43542857142853 152.85028571428575Q316.28799999999995 149.99771428571438 316.28799999999995 146.28571428571428T313.43542857142853 139.72114285714287zM374.85714285714283 192Q374.85714285714283 234.27657142857143 353.99314285714286 270.00685714285714T297.41714285714284 326.58285714285716T219.41028571428572 347.44685714285714T141.40342857142858 326.58285714285716T84.82742857142858 270.00685714285714T63.96342857142859 192T84.82742857142858 113.99314285714291T141.40342857142858 57.41714285714289T219.41028571428572 36.553142857142916T297.41714285714284 57.41714285714289T353.99314285714286 113.99314285714291T374.85714285714283 192.00000000000006zM438.85714285714283 192Q438.85714285714283 132.2788571428572 409.43542857142853 81.86514285714287T329.5817142857142 2.0114285714286098T219.44685714285708 -27.41028571428575T109.31199999999995 2.0114285714286098T29.458285714285676 81.86514285714287T0.03657142857139206 192T29.458285714285676 302.1348571428572T109.31199999999995 381.98857142857145T219.44685714285708 411.4102857142857T329.5817142857142 381.98857142857145T409.43542857142853 302.1348571428572T438.85714285714283 192z" />
    <glyph glyph-name="close"
      unicode="&#xF00D;"
      horiz-adv-x="402.2857142857143" d=" M370.85257142857137 70.29028571428574Q370.85257142857137 58.861714285714356 362.84342857142855 50.870857142857176L323.9862857142857 12.013714285714286Q315.97714285714284 4.004571428571467 304.5668571428571 4.004571428571467T285.1474285714285 12.013714285714286L201.14285714285714 96.01828571428575L117.1382857142857 12.013714285714286Q109.12914285714285 4.004571428571467 97.71885714285713 4.004571428571467T78.29942857142855 12.013714285714286L39.442285714285696 50.870857142857176Q31.43314285714284 58.879999999999995 31.43314285714284 70.29028571428574T39.442285714285696 89.70971428571437L123.44685714285713 173.71428571428578L39.442285714285696 257.71885714285725Q31.43314285714284 265.72800000000007 31.43314285714284 277.13828571428576T39.442285714285696 296.5577142857144L78.29942857142855 335.4148571428572Q86.3085714285714 343.4240000000001 97.71885714285713 343.4240000000001T117.1382857142857 335.4148571428572L201.14285714285714 251.41028571428578L285.1474285714286 335.4148571428572Q293.1565714285714 343.42400000000004 304.56685714285715 343.42400000000004T323.98628571428577 335.4148571428572L362.8434285714286 296.5577142857144Q370.8525714285714 288.54857142857145 370.8525714285714 277.13828571428576T362.8434285714286 257.71885714285725L278.8388571428572 173.71428571428578L362.8434285714286 89.70971428571437Q370.8525714285714 81.7005714285715 370.8525714285714 70.29028571428574z" />
    </font>
</defs>
</svg>
