<?xml version="1.0" encoding="utf-8"?>
<!-- Generator: Adobe Illustrator 16.0.4, SVG Export Plug-In . SVG Version: 6.00 Build 0)  -->
<!DOCTYPE svg PUBLIC "-//W3C//DTD SVG 1.1//EN" "http://www.w3.org/Graphics/SVG/1.1/DTD/svg11.dtd">
<svg version="1.1" id="Layer_1" xmlns="http://www.w3.org/2000/svg" xmlns:xlink="http://www.w3.org/1999/xlink" x="0px" y="0px"
	 width="24px" height="24px" viewBox="0 0 24 24" enable-background="new 0 0 24 24" xml:space="preserve">
<path d="M24.053,23.439c-3.568,0-7.138,0-10.708,0c0-0.382,0-0.769,0-1.15c1.052-0.143,2.185-0.197,2.532-1.039
	c0.026-2.059-0.967-3.1-1.38-4.719c-2.764,0-5.529,0-8.292,0c-0.471,1.746-3.481,5.862,0.69,5.64c0,0.425,0,0.842,0,1.266
	c-2.264,0-4.529,0-6.793,0c0-0.346,0-0.687,0-1.038c0.27-0.4,1.121-0.33,1.497-0.688c0.837-0.802,1.328-3.406,1.843-4.719
	C5.229,12.428,7.34,7.296,8.967,3.057c-0.337-0.888-0.724-1.73-1.036-2.648c1.995,0,3.991,0,5.987,0
	c1.959,4.901,4.154,10.688,6.333,16.119c0.833,2.08,1.496,5.428,3.798,5.758C24.053,22.671,24.053,23.058,24.053,23.439z
	 M7.013,14.229c2.149,0,4.299,0,6.446,0c-1.035-2.843-2.11-5.644-3.339-8.292C9.182,8.798,8.007,11.424,7.013,14.229z"/>
</svg>
