<?xml version="1.0" encoding="utf-8"?>
<!-- Generator: Adobe Illustrator 16.0.4, SVG Export Plug-In . SVG Version: 6.00 Build 0)  -->
<!DOCTYPE svg PUBLIC "-//W3C//DTD SVG 1.1//EN" "http://www.w3.org/Graphics/SVG/1.1/DTD/svg11.dtd">
<svg version="1.1" id="Layer_1" xmlns="http://www.w3.org/2000/svg" xmlns:xlink="http://www.w3.org/1999/xlink" x="0px" y="0px"
	 width="18px" height="18px" viewBox="0 0 18 18" enable-background="new 0 0 18 18" xml:space="preserve">
<g>
	<path d="M17,2v11h-4.6h-0.414l-0.293,0.293l-2.695,2.691l-2.691-2.691L6.014,13H5.6H1V2H17 M17,1H1C0.4,1,0,1.4,0,2v11
		c0,0.6,0.4,1,1,1h4.6l2.7,2.7C8.5,16.9,8.7,17,9,17s0.5-0.1,0.7-0.3l2.7-2.7H17c0.6,0,1-0.4,1-1V2C18,1.4,17.6,1,17,1L17,1z"/>
</g>
<path d="M5.52,11.15c1.99,0,3.01-1.32,3.28-2.41L7.51,8.35C7.32,9.01,6.73,9.8,5.52,9.8c-1.14,0-2.2-0.83-2.2-2.34
	c0-1.61,1.12-2.37,2.18-2.37c1.23,0,1.78,0.75,1.95,1.43l1.3-0.41C8.47,4.96,7.46,3.76,5.5,3.76c-1.9,0-3.61,1.44-3.61,3.7
	S3.54,11.15,5.52,11.15z"/>
<path d="M13.09,11.15c1.99,0,3.01-1.32,3.28-2.41l-1.29-0.39C14.891,9.01,14.3,9.8,13.09,9.8c-1.14,0-2.199-0.83-2.199-2.34
	c0-1.61,1.119-2.37,2.18-2.37c1.229,0,1.779,0.75,1.949,1.43l1.301-0.41c-0.28-1.15-1.291-2.35-3.25-2.35c-1.9,0-3.61,1.44-3.61,3.7
	S11.109,11.15,13.09,11.15z"/>
</svg>
