<?xml version="1.0" encoding="utf-8"?>
<!-- Generator: Adobe Illustrator 16.0.4, SVG Export Plug-In . SVG Version: 6.00 Build 0)  -->
<!DOCTYPE svg PUBLIC "-//W3C//DTD SVG 1.1//EN" "http://www.w3.org/Graphics/SVG/1.1/DTD/svg11.dtd">
<svg version="1.1" id="Layer_1" xmlns="http://www.w3.org/2000/svg" xmlns:xlink="http://www.w3.org/1999/xlink" x="0px" y="0px"
	 width="18px" height="18px" viewBox="0 0 18 18" enable-background="new 0 0 18 18" xml:space="preserve">
<path d="M17,1H1C0.4,1,0,1.4,0,2v11c0,0.6,0.4,1,1,1h4.6l2.7,2.7C8.5,16.9,8.7,17,9,17s0.5-0.1,0.7-0.3l2.7-2.7H17c0.6,0,1-0.4,1-1
	V2C18,1.4,17.6,1,17,1z M5.52,11.15c-1.98,0-3.63-1.431-3.63-3.69s1.71-3.7,3.61-3.7c1.96,0,2.97,1.2,3.25,2.35l-1.3,0.41
	C7.28,5.84,6.73,5.09,5.5,5.09c-1.06,0-2.18,0.76-2.18,2.37c0,1.51,1.06,2.34,2.2,2.34c1.21,0,1.8-0.79,1.99-1.45L8.8,8.74
	C8.53,9.83,7.51,11.15,5.52,11.15z M13.09,11.15c-1.98,0-3.63-1.431-3.63-3.69s1.71-3.7,3.61-3.7c1.959,0,2.97,1.2,3.25,2.35
	L15.02,6.52c-0.17-0.68-0.72-1.43-1.949-1.43c-1.061,0-2.18,0.76-2.18,2.37c0,1.51,1.06,2.34,2.199,2.34
	c1.21,0,1.801-0.79,1.99-1.45l1.29,0.39C16.1,9.83,15.08,11.15,13.09,11.15z"/>
</svg>
