<?xml version="1.0" encoding="utf-8"?>
<!-- Generator: Adobe Illustrator 16.0.4, SVG Export Plug-In . SVG Version: 6.00 Build 0)  -->
<!DOCTYPE svg PUBLIC "-//W3C//DTD SVG 1.1//EN" "http://www.w3.org/Graphics/SVG/1.1/DTD/svg11.dtd">
<svg version="1.1" id="Layer_1" xmlns="http://www.w3.org/2000/svg" xmlns:xlink="http://www.w3.org/1999/xlink" x="0px" y="0px"
	 width="512px" height="512px" viewBox="0 0 512 512" enable-background="new 0 0 512 512" xml:space="preserve">
<g>
	<g>
		<g>
			<path d="M0,0.002v511.996h512.004V0.002H0z M345.338,363.76c2.574,2.561,3.86,5.611,3.86,9.129c0,3.516-1.286,6.566-3.86,9.129
				l-33.688,33.697c-2.562,2.561-5.613,3.854-9.129,3.854c-3.517,0-6.556-1.293-9.129-3.854l-150.58-150.58
				c-2.573-2.573-3.854-5.624-3.854-9.141s1.28-6.556,3.854-9.129l150.58-150.579c2.573-2.573,5.612-3.854,9.129-3.854
				c3.516,0,6.567,1.281,9.129,3.854l33.689,33.686c2.573,2.573,3.859,5.612,3.859,9.129s-1.286,6.567-3.859,9.141L237.583,255.994
				L345.338,363.76z"/>
		</g>
	</g>
</g>
</svg>
