<?xml version="1.0" encoding="utf-8"?>
<!-- Generator: Adobe Illustrator 16.0.4, SVG Export Plug-In . SVG Version: 6.00 Build 0)  -->
<!DOCTYPE svg PUBLIC "-//W3C//DTD SVG 1.1//EN" "http://www.w3.org/Graphics/SVG/1.1/DTD/svg11.dtd">
<svg version="1.1" id="Layer_1" xmlns="http://www.w3.org/2000/svg" xmlns:xlink="http://www.w3.org/1999/xlink" x="0px" y="0px"
	 width="512px" height="512px" viewBox="0 0 512 512" enable-background="new 0 0 512 512" xml:space="preserve">
<g>
	<g>
		<g>
			<path d="M0,0.002v511.996h512.004V0.002H0z M369.191,265.135l-150.58,150.579c-2.573,2.573-5.612,3.854-9.129,3.854
				c-3.516,0-6.567-1.281-9.129-3.854l-33.688-33.686c-2.574-2.573-3.86-5.612-3.86-9.129s1.286-6.567,3.86-9.141l107.755-107.753
				L166.666,148.241c-2.574-2.562-3.86-5.612-3.86-9.129s1.286-6.567,3.86-9.129l33.688-33.697c2.562-2.562,5.613-3.854,9.129-3.854
				c3.517,0,6.556,1.293,9.129,3.854l150.58,150.579c2.573,2.573,3.854,5.624,3.854,9.141S371.765,262.562,369.191,265.135z"/>
		</g>
	</g>
</g>
</svg>
