<?xml version="1.0" encoding="utf-8"?>
<!-- Generator: Adobe Illustrator 16.0.4, SVG Export Plug-In . SVG Version: 6.00 Build 0)  -->
<!DOCTYPE svg PUBLIC "-//W3C//DTD SVG 1.1//EN" "http://www.w3.org/Graphics/SVG/1.1/DTD/svg11.dtd">
<svg version="1.1" id="Layer_1" xmlns="http://www.w3.org/2000/svg" xmlns:xlink="http://www.w3.org/1999/xlink" x="0px" y="0px"
	 width="512px" height="512px" viewBox="0 0 512 512" enable-background="new 0 0 512 512" xml:space="preserve">
<g>
	<g>
		<g>
			<path d="M0.004,512.002H512V-0.002H0.004V512.002z M363.762,166.664c2.562-2.574,5.611-3.859,9.129-3.859
				c3.517,0,6.566,1.285,9.129,3.859l33.697,33.688c2.562,2.562,3.854,5.612,3.854,9.129s-1.293,6.556-3.854,9.129l-150.58,150.58
				c-2.572,2.573-5.623,3.854-9.141,3.854c-3.517,0-6.556-1.279-9.129-3.854L96.288,218.61c-2.573-2.573-3.854-5.612-3.854-9.129
				s1.281-6.567,3.854-9.129l33.686-33.689c2.573-2.573,5.612-3.858,9.129-3.858s6.567,1.285,9.141,3.858l107.752,107.756
				L363.762,166.664z"/>
		</g>
	</g>
</g>
</svg>
