<?xml version="1.0" encoding="utf-8"?>
<!-- Generator: Adobe Illustrator 16.0.4, SVG Export Plug-In . SVG Version: 6.00 Build 0)  -->
<!DOCTYPE svg PUBLIC "-//W3C//DTD SVG 1.1//EN" "http://www.w3.org/Graphics/SVG/1.1/DTD/svg11.dtd">
<svg version="1.1" id="Layer_1" xmlns="http://www.w3.org/2000/svg" xmlns:xlink="http://www.w3.org/1999/xlink" x="0px" y="0px"
	 width="28px" height="28px" viewBox="0 0 28 28" enable-background="new 0 0 28 28" xml:space="preserve">
<path fill="#444444" d="M24.016,21.095V11.079c-0.279,0.313-0.579,0.6-0.9,0.861c-2.329,1.79-4.183,3.261-5.555,4.408
	c-0.443,0.373-0.804,0.665-1.083,0.874c-0.277,0.208-0.653,0.418-1.128,0.632c-0.475,0.213-0.92,0.319-1.337,0.319h-0.026
	c-0.417,0-0.863-0.106-1.337-0.319c-0.474-0.214-0.85-0.424-1.128-0.632c-0.278-0.209-0.639-0.501-1.083-0.874
	c-1.374-1.148-3.226-2.618-5.555-4.408c-0.322-0.261-0.621-0.548-0.9-0.861v10.016c0,0.111,0.042,0.211,0.124,0.293
	c0.083,0.083,0.18,0.124,0.294,0.124h19.197c0.112,0,0.211-0.041,0.294-0.124C23.974,21.307,24.016,21.207,24.016,21.095
	L24.016,21.095z M24.016,7.388V7.068c0,0-0.002-0.057-0.007-0.169c-0.005-0.113-0.018-0.167-0.039-0.163
	c-0.022,0.004-0.046-0.035-0.072-0.117c-0.025-0.083-0.064-0.116-0.118-0.098c-0.052,0.018-0.112,0.007-0.182-0.032H4.401
	c-0.113,0-0.211,0.041-0.294,0.123C4.024,6.694,3.983,6.792,3.983,6.905c0,1.461,0.639,2.696,1.917,3.704
	c1.678,1.322,3.422,2.699,5.23,4.134c0.052,0.044,0.205,0.172,0.457,0.385c0.252,0.214,0.453,0.377,0.6,0.489
	c0.148,0.113,0.341,0.25,0.581,0.41c0.238,0.162,0.458,0.28,0.658,0.358c0.2,0.08,0.387,0.118,0.561,0.118h0.026
	c0.174,0,0.36-0.038,0.561-0.118c0.199-0.078,0.419-0.196,0.659-0.358c0.239-0.16,0.432-0.297,0.579-0.41
	c0.147-0.112,0.348-0.275,0.602-0.489c0.252-0.213,0.403-0.341,0.455-0.385c1.809-1.435,3.552-2.812,5.23-4.134
	c0.47-0.374,0.906-0.876,1.311-1.507C23.812,8.473,24.016,7.901,24.016,7.388z M25.685,6.905v14.189
	c0,0.573-0.203,1.064-0.613,1.473c-0.407,0.41-0.899,0.613-1.473,0.613H4.402c-0.574,0-1.065-0.203-1.475-0.613
	c-0.409-0.407-0.613-0.899-0.612-1.473V6.905c0-0.574,0.204-1.065,0.612-1.474c0.409-0.409,0.9-0.613,1.475-0.613h19.197
	c0.573,0,1.064,0.205,1.473,0.613C25.481,5.84,25.685,6.331,25.685,6.905z"/>
</svg>
