<?xml version="1.0" encoding="utf-8"?>
<!-- Generator: Adobe Illustrator 16.0.4, SVG Export Plug-In . SVG Version: 6.00 Build 0)  -->
<!DOCTYPE svg PUBLIC "-//W3C//DTD SVG 1.1//EN" "http://www.w3.org/Graphics/SVG/1.1/DTD/svg11.dtd">
<svg version="1.1" id="Layer_1" xmlns="http://www.w3.org/2000/svg" xmlns:xlink="http://www.w3.org/1999/xlink" x="0px" y="0px"
	 width="28px" height="28px" viewBox="0 0 28 28" enable-background="new 0 0 28 28" xml:space="preserve">
<path fill="#444444" d="M21.5,2c1.239,0,2.299,0.44,3.18,1.32C25.561,4.2,26,5.26,26,6.5v15c0,1.239-0.439,2.299-1.32,3.18
	C23.8,25.561,22.74,26,21.5,26h-15c-1.239,0-2.299-0.439-3.18-1.32C2.439,23.8,2,22.74,2,21.5v-15c0-1.239,0.44-2.299,1.32-3.18
	C4.2,2.439,5.26,2,6.5,2H21.5z M12.906,14c0-0.917-0.323-1.698-0.969-2.344c-0.646-0.646-1.427-0.969-2.344-0.969
	c-0.917,0-1.698,0.323-2.344,0.969C6.603,12.302,6.28,13.083,6.28,14c0,0.916,0.323,1.698,0.969,2.344
	c0.646,0.646,1.427,0.969,2.344,0.969c0.917,0,1.698-0.322,2.344-0.969C12.583,15.698,12.906,14.916,12.906,14z M21.719,14
	c0-0.917-0.322-1.698-0.969-2.344c-0.646-0.646-1.428-0.969-2.344-0.969c-0.917,0-1.698,0.323-2.344,0.969
	c-0.646,0.646-0.97,1.427-0.97,2.344c0,0.916,0.323,1.698,0.97,2.344c0.646,0.646,1.427,0.969,2.344,0.969
	c0.916,0,1.697-0.322,2.344-0.969C21.396,15.698,21.719,14.916,21.719,14z"/>
</svg>
