<?xml version="1.0" encoding="utf-8"?>
<!-- Generator: Adobe Illustrator 16.0.4, SVG Export Plug-In . SVG Version: 6.00 Build 0)  -->
<!DOCTYPE svg PUBLIC "-//W3C//DTD SVG 1.1//EN" "http://www.w3.org/Graphics/SVG/1.1/DTD/svg11.dtd">
<svg version="1.1" id="Layer_1" xmlns="http://www.w3.org/2000/svg" xmlns:xlink="http://www.w3.org/1999/xlink" x="0px" y="0px"
	 width="28px" height="28px" viewBox="0 0 28 28" enable-background="new 0 0 28 28" xml:space="preserve">
<path fill-rule="evenodd" clip-rule="evenodd" d="M9.666,12.917v2.601h4.302c-0.174,1.115-1.301,3.271-4.302,3.271
	c-2.589,0-4.701-2.145-4.701-4.788c0-2.643,2.112-4.788,4.701-4.788c1.473,0,2.459,0.628,3.023,1.17l2.057-1.983
	c-1.321-1.235-3.032-1.982-5.08-1.982c-4.192,0-7.583,3.391-7.583,7.583s3.391,7.583,7.583,7.583c4.377,0,7.281-3.076,7.281-7.409
	c0-0.499-0.056-0.878-0.121-1.257H9.666L9.666,12.917L9.666,12.917z M9.666,12.917"/>
<polyline fill-rule="evenodd" clip-rule="evenodd" points="25.916,12.917 23.749,12.917 23.749,10.75 21.583,10.75 21.583,12.917 
	19.416,12.917 19.416,15.084 21.583,15.084 21.583,17.25 23.749,17.25 23.749,15.084 25.916,15.084 "/>
</svg>
