<?xml version="1.0" encoding="utf-8"?>
<!-- Generator: Adobe Illustrator 16.0.4, SVG Export Plug-In . SVG Version: 6.00 Build 0)  -->
<!DOCTYPE svg PUBLIC "-//W3C//DTD SVG 1.1//EN" "http://www.w3.org/Graphics/SVG/1.1/DTD/svg11.dtd">
<svg version="1.1" id="Layer_1" xmlns="http://www.w3.org/2000/svg" xmlns:xlink="http://www.w3.org/1999/xlink" x="0px" y="0px"
	 width="28px" height="28px" viewBox="0 0 28 28" enable-background="new 0 0 28 28" xml:space="preserve">
<path fill-rule="evenodd" clip-rule="evenodd" d="M8.75,12.75v3.001h4.963c-0.201,1.286-1.501,3.773-4.963,3.773
	c-2.988,0-5.424-2.475-5.424-5.525c0-3.049,2.437-5.525,5.424-5.525c1.699,0,2.837,0.725,3.488,1.351l2.374-2.288
	C13.086,6.112,11.113,5.25,8.75,5.25C3.913,5.25,0,9.162,0,14s3.913,8.75,8.75,8.75c5.051,0,8.401-3.549,8.401-8.549
	c0-0.576-0.062-1.013-0.139-1.45H8.75L8.75,12.75L8.75,12.75z M8.75,12.75"/>
<polyline fill-rule="evenodd" clip-rule="evenodd" points="28,12.645 25.5,12.645 25.5,10.145 23.001,10.145 23.001,12.645 
	20.5,12.645 20.5,15.146 23.001,15.146 23.001,17.645 25.5,17.645 25.5,15.146 28,15.146 "/>
</svg>
