<?xml version="1.0" encoding="utf-8"?>
<!-- Generator: Adobe Illustrator 16.0.4, SVG Export Plug-In . SVG Version: 6.00 Build 0)  -->
<!DOCTYPE svg PUBLIC "-//W3C//DTD SVG 1.1//EN" "http://www.w3.org/Graphics/SVG/1.1/DTD/svg11.dtd">
<svg version="1.1" id="Layer_1" xmlns="http://www.w3.org/2000/svg" xmlns:xlink="http://www.w3.org/1999/xlink" x="0px" y="0px"
	 width="28px" height="28px" viewBox="0 0 28 28" enable-background="new 0 0 28 28" xml:space="preserve">
<path fill="#444444" d="M23.281,22.281V12.156h-2.109c0.209,0.656,0.312,1.338,0.312,2.047c0,1.312-0.332,2.523-1,3.633
	c-0.666,1.109-1.572,1.987-2.719,2.633c-1.146,0.646-2.396,0.969-3.75,0.969c-2.052,0-3.808-0.705-5.266-2.117
	c-1.458-1.41-2.188-3.116-2.188-5.116c0-0.708,0.104-1.391,0.313-2.047H4.672v10.125c0,0.271,0.091,0.497,0.273,0.68
	c0.182,0.183,0.409,0.274,0.68,0.272h16.703c0.261,0,0.484-0.09,0.672-0.272C23.188,22.78,23.281,22.553,23.281,22.281
	L23.281,22.281z M18.844,13.953c0-1.292-0.471-2.393-1.414-3.305c-0.942-0.912-2.08-1.368-3.414-1.367
	c-1.323,0-2.456,0.456-3.398,1.367c-0.943,0.912-1.414,2.013-1.414,3.305s0.471,2.394,1.414,3.305
	c0.942,0.912,2.075,1.367,3.398,1.367c1.333,0,2.471-0.455,3.414-1.367C18.373,16.347,18.844,15.245,18.844,13.953z M23.281,8.328
	V5.75c0-0.292-0.104-0.545-0.313-0.758c-0.208-0.213-0.464-0.32-0.766-0.32h-2.72c-0.301,0-0.557,0.107-0.766,0.32
	c-0.209,0.213-0.312,0.466-0.312,0.758v2.578c0,0.302,0.104,0.557,0.312,0.766c0.209,0.209,0.465,0.313,0.766,0.313h2.72
	c0.302,0,0.558-0.104,0.766-0.313C23.177,8.885,23.281,8.63,23.281,8.328z M26,5.078v17.844c0,0.844-0.302,1.568-0.906,2.172
	C24.49,25.698,23.766,26,22.922,26H5.078c-0.844,0-1.568-0.302-2.172-0.906C2.302,24.49,2,23.766,2,22.922V5.078
	C2,4.234,2.302,3.51,2.906,2.906C3.51,2.302,4.234,2,5.078,2h17.844c0.844,0,1.568,0.302,2.172,0.906C25.698,3.51,26,4.234,26,5.078
	z"/>
</svg>
