<?xml version="1.0" encoding="utf-8"?>
<!-- Generator: Adobe Illustrator 16.0.0, SVG Export Plug-In . SVG Version: 6.00 Build 0)  -->
<!DOCTYPE svg PUBLIC "-//W3C//DTD SVG 1.1//EN" "http://www.w3.org/Graphics/SVG/1.1/DTD/svg11.dtd">
<svg version="1.1" id="Layer_1" xmlns="http://www.w3.org/2000/svg" xmlns:xlink="http://www.w3.org/1999/xlink" x="0px" y="0px"
	 width="28px" height="28px" viewBox="0 0 28 28" enable-background="new 0 0 28 28" xml:space="preserve">
<g>
	<path d="M14,4.261c3.172,0,3.548,0.013,4.801,0.07c1.157,0.053,1.786,0.245,2.205,0.408c0.555,0.215,0.95,0.473,1.366,0.889
		c0.415,0.416,0.673,0.812,0.888,1.365c0.163,0.419,0.356,1.048,0.41,2.206c0.057,1.253,0.068,1.629,0.068,4.801
		c0,3.171-0.012,3.547-0.068,4.799c-0.054,1.159-0.247,1.787-0.41,2.206c-0.215,0.555-0.473,0.951-0.888,1.366
		c-0.416,0.416-0.812,0.673-1.366,0.889c-0.419,0.162-1.048,0.356-2.205,0.409c-1.253,0.058-1.629,0.069-4.801,0.069
		s-3.548-0.012-4.8-0.069c-1.158-0.053-1.788-0.247-2.206-0.409c-0.555-0.216-0.951-0.473-1.366-0.889
		c-0.416-0.415-0.673-0.812-0.889-1.366c-0.163-0.419-0.356-1.047-0.409-2.205c-0.057-1.253-0.069-1.629-0.069-4.8
		c0-3.172,0.012-3.548,0.069-4.801C4.384,8.041,4.577,7.412,4.74,6.993c0.215-0.554,0.473-0.949,0.889-1.364
		c0.415-0.417,0.811-0.675,1.366-0.89C7.413,4.576,8.042,4.384,9.2,4.331C10.452,4.273,10.828,4.261,14,4.261 M14,2.121
		c-3.226,0-3.63,0.014-4.898,0.071C7.838,2.25,6.975,2.45,6.219,2.744c-0.781,0.304-1.443,0.71-2.104,1.371
		c-0.661,0.659-1.066,1.322-1.37,2.104C2.451,6.974,2.25,7.838,2.192,9.103C2.135,10.369,2.121,10.773,2.121,14
		c0,3.226,0.014,3.63,0.071,4.897c0.058,1.265,0.259,2.127,0.553,2.883c0.303,0.781,0.709,1.444,1.37,2.104s1.323,1.066,2.104,1.37
		c0.756,0.293,1.619,0.494,2.883,0.552c1.268,0.059,1.672,0.071,4.898,0.071c3.226,0,3.631-0.013,4.897-0.071
		c1.265-0.058,2.128-0.259,2.884-0.552c0.781-0.304,1.444-0.71,2.104-1.37c0.661-0.66,1.066-1.323,1.371-2.104
		c0.293-0.756,0.494-1.618,0.551-2.883c0.059-1.268,0.072-1.672,0.072-4.897c0-3.227-0.014-3.631-0.072-4.897
		c-0.057-1.265-0.258-2.129-0.551-2.884c-0.305-0.781-0.71-1.444-1.371-2.104c-0.659-0.661-1.322-1.067-2.104-1.371
		c-0.756-0.294-1.619-0.494-2.884-0.552C17.631,2.135,17.226,2.121,14,2.121L14,2.121z"/>
	<path d="M14,7.899c-3.369,0-6.1,2.731-6.1,6.101c0,3.368,2.731,6.1,6.1,6.1s6.1-2.731,6.1-6.1C20.1,10.631,17.369,7.899,14,7.899z
		 M14,17.959c-2.187,0-3.959-1.772-3.959-3.959c0-2.188,1.772-3.96,3.959-3.96c2.187,0,3.96,1.772,3.96,3.96
		C17.96,16.187,16.187,17.959,14,17.959z"/>
	<circle cx="20.341" cy="7.659" r="1.426"/>
</g>
</svg>
