<?xml version="1.0" encoding="utf-8"?>
<!-- Generator: Adobe Illustrator 16.0.4, SVG Export Plug-In . SVG Version: 6.00 Build 0)  -->
<!DOCTYPE svg PUBLIC "-//W3C//DTD SVG 1.1//EN" "http://www.w3.org/Graphics/SVG/1.1/DTD/svg11.dtd">
<svg version="1.1" id="Layer_1" xmlns="http://www.w3.org/2000/svg" xmlns:xlink="http://www.w3.org/1999/xlink" x="0px" y="0px"
	 width="512px" height="512px" viewBox="0 0 512 512" enable-background="new 0 0 512 512" xml:space="preserve">
<path fill-rule="evenodd" clip-rule="evenodd" d="M151.181,264.018c-12.938,0.176-25.692,2.205-37.753,7.609
	c-6.885,3.086-13.085,7.168-18.022,12.975c-6.747,7.936-9.164,17.123-7.876,27.373c0.67,5.334,2.231,10.416,4.473,15.281
	c3.816,8.279,5.506,16.953,4.863,26.043c-1.682,23.771-19.369,41.926-41.068,44.734c-15.192,1.965-28.365-2.596-39.804-12.691
	c-8.599-7.59-13.319-17.15-15.053-28.328c-1.445-9.32-1.389-18.588,1.131-27.75c1.644-5.975,4.532-11.17,9.213-15.373
	c4.326-3.887,8.735-7.621,13.818-10.496c7.825-4.424,16.186-6.18,25.171-5.559c6.817,0.471,13.427-0.775,19.562-3.914
	c6.508-3.33,10.614-8.75,13.046-15.529c2.419-6.742,3.069-13.768,3.105-20.855c0.043-8.414-0.865-16.762-2.093-25.076
	c-0.36-2.438-0.742-4.873-1.149-7.303c-0.583-3.481-1.4-6.887-2.559-10.246c-2.096-6.075-3.217-12.377-3.366-18.814
	c-0.183-7.931-0.319-15.867,1.539-23.67c6.02-25.282,20.972-42.953,45.081-52.75c10.474-4.256,21.412-6.086,32.683-5.157
	c20.841,1.719,37.947,10.747,51.31,26.84c0.978,1.178,1.975,2.363,2.778,3.659c2.086,3.363,4.633,6.342,7.343,9.196
	c4.726,4.977,9.367,10.041,14.246,14.863c2.257,2.23,4.854,4.191,7.531,5.91c10.991,7.054,25.096,6.6,35.747-0.965
	c4.652-3.304,8.607-7.357,12.438-11.537c3.828-4.177,7.592-8.413,11.367-12.636c0.485-0.543,0.908-1.148,1.31-1.759
	c11.224-17.086,26.759-27.989,46.773-32.247c14.268-3.035,28.255-1.664,41.793,3.726c23.736,9.45,38.653,26.703,45.042,51.376
	c1.256,4.853,1.851,9.818,1.909,14.835c0.082,7.065,0.219,14.138-1.286,21.104c-0.506,2.341-0.938,4.731-1.773,6.96
	c-1.649,4.4-2.537,8.955-3.279,13.559c-1.432,8.887-2.578,17.807-2.83,26.815c-0.206,7.357,0.241,14.664,2.296,21.779
	c2.538,8.791,7.573,15.49,16.25,19.061c3.287,1.352,6.724,2.117,10.244,2.543c2.921,0.355,5.833,0.256,8.772,0.168
	c13.993-0.422,26.066,4.268,35.781,14.385c5.271,5.488,8.397,12.311,10.237,19.65c3.206,12.787,2.28,25.371-2.275,37.705
	c-2.944,7.973-8.423,13.963-15.059,19.012c-16.782,12.771-39.914,13.396-56.767,1.363c-11.501-8.211-18.121-19.496-20.042-33.479
	c-1.367-9.953,0.145-19.512,4.306-28.66c2.666-5.863,4.553-11.951,4.942-18.424c0.721-11.984-3.82-21.699-12.848-29.424
	c-6.333-5.42-13.691-8.959-21.582-11.424c-11.702-3.656-23.694-4.955-35.925-4.229c-9.509,0.564-18.766,2.299-27.662,5.766
	c-6.135,2.391-11.811,5.564-16.704,10.021c-5.755,5.24-9.554,11.594-10.71,19.367c-0.951,6.398-0.019,12.627,2.062,18.693
	c0.579,1.686,1.325,3.348,2.221,4.889c12.385,21.324,7.021,48.375-12.707,63.707c-9.596,7.459-20.539,11.072-32.658,11.25
	c-5.945,0.086-11.89,0.004-17.66-1.596c-19.622-5.443-32.736-17.631-37.89-37.559c-3.195-12.355-1.25-24.23,5.028-35.312
	c2.724-4.811,4.093-9.975,4.643-15.367c1.296-12.725-3.681-22.729-13.66-30.416c-7.151-5.51-15.365-8.725-24.042-10.875
	C167.328,264.883,159.387,264.094,151.181,264.018z M205.791,246.122c-0.204,24.812,19.542,50.28,50.233,50.399
	c30.857,0.119,50.691-25.314,50.686-50.162c-0.007-27.639-22.403-50.146-49.947-50.376
	C228.936,195.751,205.965,217.911,205.791,246.122z"/>
</svg>
