<?xml version="1.0" encoding="utf-8"?>
<!-- Generator: Adobe Illustrator 16.0.4, SVG Export Plug-In . SVG Version: 6.00 Build 0)  -->
<!DOCTYPE svg PUBLIC "-//W3C//DTD SVG 1.1//EN" "http://www.w3.org/Graphics/SVG/1.1/DTD/svg11.dtd">
<svg version="1.1" id="Layer_1" xmlns="http://www.w3.org/2000/svg" xmlns:xlink="http://www.w3.org/1999/xlink" x="0px" y="0px"
	 width="28px" height="28px" viewBox="0 0 28 28" enable-background="new 0 0 28 28" xml:space="preserve">
<path fill="#444444" d="M25.998,14c0,2.178-0.536,4.186-1.609,6.023c-1.072,1.838-2.527,3.293-4.367,4.367
	c-1.838,1.072-3.846,1.609-6.022,1.608c-1.156,0-2.292-0.167-3.406-0.5c0.614-0.969,1.021-1.823,1.219-2.562
	c0.094-0.354,0.375-1.453,0.844-3.297c0.208,0.405,0.589,0.757,1.141,1.055c0.552,0.297,1.146,0.445,1.781,0.445
	c1.261,0,2.386-0.357,3.375-1.07c0.989-0.714,1.755-1.695,2.297-2.945s0.812-2.656,0.812-4.219c0-1.188-0.311-2.302-0.931-3.344
	s-1.519-1.891-2.694-2.547c-1.178-0.656-2.505-0.984-3.984-0.984c-1.094,0-2.115,0.151-3.063,0.453
	c-0.948,0.302-1.753,0.703-2.414,1.203S7.747,8.763,7.273,9.414S6.45,10.74,6.226,11.437S5.89,12.833,5.89,13.531
	c0,1.083,0.208,2.036,0.625,2.859c0.417,0.822,1.026,1.4,1.828,1.733c0.312,0.124,0.51,0.021,0.594-0.313
	C8.958,17.738,9,17.577,9.062,17.327s0.104-0.406,0.125-0.47c0.062-0.238,0.005-0.463-0.172-0.672
	c-0.531-0.635-0.797-1.422-0.797-2.358c0-1.573,0.544-2.924,1.633-4.055c1.089-1.13,2.513-1.696,4.273-1.695
	c1.573,0,2.8,0.427,3.681,1.281c0.88,0.854,1.32,1.963,1.319,3.328c0,1.771-0.356,3.276-1.069,4.516
	c-0.714,1.239-1.628,1.859-2.742,1.858c-0.636,0-1.146-0.227-1.531-0.68c-0.386-0.453-0.505-0.998-0.359-1.633
	c0.083-0.365,0.222-0.852,0.414-1.461c0.193-0.609,0.349-1.146,0.469-1.609c0.12-0.463,0.18-0.856,0.18-1.18
	c0-0.521-0.141-0.953-0.422-1.297c-0.281-0.344-0.682-0.516-1.203-0.516c-0.646,0-1.193,0.297-1.641,0.891
	c-0.448,0.594-0.672,1.333-0.672,2.219c0,0.761,0.13,1.396,0.391,1.906l-1.547,6.531c-0.177,0.729-0.245,1.65-0.203,2.766
	c-2.146-0.948-3.88-2.412-5.203-4.391c-1.322-1.979-1.984-4.183-1.984-6.609c0-2.177,0.537-4.185,1.609-6.023
	c1.073-1.838,2.528-3.294,4.367-4.367S11.823,1.999,14,1.999s4.185,0.537,6.023,1.609c1.838,1.072,3.294,2.528,4.367,4.367
	c1.072,1.839,1.608,3.847,1.608,6.023L25.998,14z"/>
</svg>
