<?xml version="1.0" encoding="utf-8"?>
<!-- Generator: Adobe Illustrator 16.0.4, SVG Export Plug-In . SVG Version: 6.00 Build 0)  -->
<!DOCTYPE svg PUBLIC "-//W3C//DTD SVG 1.1//EN" "http://www.w3.org/Graphics/SVG/1.1/DTD/svg11.dtd">
<svg version="1.1" id="Layer_1" xmlns="http://www.w3.org/2000/svg" xmlns:xlink="http://www.w3.org/1999/xlink" x="0px" y="0px"
	 width="28px" height="28px" viewBox="0 0 28 28" enable-background="new 0 0 28 28" xml:space="preserve">
<path fill="#444444" d="M14,2c2.178,0,4.186,0.536,6.023,1.609s3.293,2.528,4.367,4.367c1.072,1.838,1.609,3.846,1.608,6.023
	s-0.537,4.185-1.608,6.022c-1.072,1.84-2.528,3.295-4.367,4.367c-1.84,1.073-3.848,1.609-6.023,1.609s-4.184-0.536-6.023-1.609
	c-1.839-1.072-3.295-2.527-4.367-4.367c-1.072-1.838-1.608-3.846-1.609-6.022S2.537,9.814,3.61,7.976
	c1.073-1.839,2.529-3.294,4.367-4.367S11.823,2,14,2z M20,14.859c0.334-0.188,0.5-0.474,0.5-0.859s-0.166-0.672-0.5-0.859l-8.5-5
	c-0.323-0.198-0.656-0.204-1-0.016C10.167,8.323,10,8.615,10,9v10c0,0.385,0.167,0.677,0.5,0.875C10.667,19.959,10.833,20,11,20
	c0.177,0,0.344-0.047,0.5-0.141L20,14.859z"/>
</svg>
