<?xml version="1.0" encoding="utf-8"?>
<!-- Generator: Adobe Illustrator 16.0.4, SVG Export Plug-In . SVG Version: 6.00 Build 0)  -->
<!DOCTYPE svg PUBLIC "-//W3C//DTD SVG 1.1//EN" "http://www.w3.org/Graphics/SVG/1.1/DTD/svg11.dtd">
<svg version="1.1" id="Layer_1" xmlns="http://www.w3.org/2000/svg" xmlns:xlink="http://www.w3.org/1999/xlink" x="0px" y="0px"
	 width="28px" height="28px" viewBox="0 0 28 28" enable-background="new 0 0 28 28" xml:space="preserve">
<path fill="#444444" d="M9.312,22.489c0,0.878-0.307,1.621-0.92,2.235c-0.614,0.615-1.359,0.921-2.236,0.921
	s-1.622-0.306-2.236-0.921c-0.614-0.614-0.92-1.357-0.92-2.235c0-0.877,0.307-1.621,0.92-2.235c0.614-0.614,1.359-0.921,2.236-0.921
	s1.622,0.307,2.236,0.921C9.005,20.868,9.312,21.612,9.312,22.489z M17.727,24.512c0.023,0.307-0.071,0.569-0.279,0.789
	c-0.197,0.229-0.454,0.345-0.772,0.345h-2.218c-0.274,0-0.51-0.091-0.707-0.271c-0.197-0.181-0.307-0.408-0.33-0.682
	c-0.241-2.509-1.252-4.654-3.033-6.436s-3.926-2.792-6.436-3.033c-0.274-0.021-0.501-0.132-0.682-0.329
	C3.09,14.696,3,14.461,2.999,14.188v-2.219c0-0.317,0.115-0.576,0.345-0.773c0.187-0.186,0.422-0.279,0.707-0.279h0.082
	c1.753,0.142,3.43,0.583,5.03,1.323c1.6,0.74,3.019,1.734,4.257,2.983c1.249,1.239,2.244,2.658,2.983,4.258
	C17.144,21.082,17.585,22.759,17.727,24.512z M26.144,24.544c0.022,0.296-0.076,0.553-0.296,0.772
	c-0.197,0.219-0.448,0.329-0.756,0.329H22.74c-0.283,0-0.527-0.096-0.731-0.288c-0.201-0.19-0.308-0.423-0.32-0.698
	c-0.131-2.354-0.685-4.595-1.66-6.715c-0.974-2.121-2.244-3.962-3.806-5.523c-1.56-1.562-3.4-2.83-5.521-3.806
	C8.581,7.641,6.342,7.082,3.986,6.939c-0.274-0.01-0.507-0.118-0.699-0.321C3.096,6.415,3,6.177,3,5.903v-2.35
	c0-0.307,0.11-0.56,0.329-0.756C3.526,2.599,3.768,2.5,4.053,2.5h0.049c2.872,0.142,5.619,0.8,8.244,1.973s4.956,2.784,6.994,4.833
	c2.049,2.038,3.66,4.37,4.833,6.994c1.174,2.624,1.831,5.373,1.973,8.244H26.144z"/>
</svg>
