<?xml version="1.0" encoding="utf-8"?>
<!-- Generator: Adobe Illustrator 16.0.0, SVG Export Plug-In . SVG Version: 6.00 Build 0)  -->
<!DOCTYPE svg PUBLIC "-//W3C//DTD SVG 1.1//EN" "http://www.w3.org/Graphics/SVG/1.1/DTD/svg11.dtd">
<svg version="1.1" id="Layer_1" xmlns="http://www.w3.org/2000/svg" xmlns:xlink="http://www.w3.org/1999/xlink" x="0px" y="0px"
	 width="24px" height="24px" viewBox="0 0 24 24" enable-background="new 0 0 24 24" xml:space="preserve">
<path d="M7,17.939H6V9.871C6.308,9.64,6.639,9.442,7,9.305V17.939z M10,17.939h1V8.715c-0.229,0.265-0.443,0.548-0.621,0.857
	L10,9.388V17.939z M8,17.939h1V9.091c-0.508-0.079-0.623-0.05-1-0.01V17.939z M4,17.939h1v-7.021
	c-0.312,0.458-0.555,0.971-0.692,1.535L4,12.272V17.939z M1,12.689c-0.606,0.547-1,1.354-1,2.268s0.394,1.721,1,2.268V12.689z
	 M19.879,12.018c-0.204-2.837-2.404-5.079-5.117-5.079c-1.021,0-1.964,0.328-2.762,0.877v10.124h9.089
	c1.606,0,2.911-1.394,2.911-3.106C24,12.6,21.832,11.061,19.879,12.018z M3,11.991c-0.302-0.024-0.526-0.03-1,0.122v5.69
	c0.446,0.143,0.636,0.137,1,0.137V11.991z"/>
</svg>
