<?xml version="1.0" encoding="utf-8"?>
<!-- Generator: Adobe Illustrator 16.0.0, SVG Export Plug-In . SVG Version: 6.00 Build 0)  -->
<!DOCTYPE svg PUBLIC "-//W3C//DTD SVG 1.1//EN" "http://www.w3.org/Graphics/SVG/1.1/DTD/svg11.dtd">
<svg version="1.1" id="Layer_1" xmlns="http://www.w3.org/2000/svg" xmlns:xlink="http://www.w3.org/1999/xlink" x="0px" y="0px"
	 width="28px" height="28px" viewBox="0 0 28 28" enable-background="new 0 0 28 28" xml:space="preserve">
<g>
	<path d="M20.747,13.703c-1.09-0.212-0.561-0.797-0.561-0.797s1.066-1.758-0.212-3.036c-1.583-1.583-5.431,0.2-5.431,0.2
		c-1.469,0.458-1.077-0.208-0.871-1.337c0-1.332-0.457-3.584-4.371-2.252C5.396,7.821,2.04,12.506,2.04,12.506
		c-2.335,3.115-2.026,5.521-2.026,5.521c0.583,5.313,6.228,6.774,10.62,7.12c4.622,0.362,10.855-1.592,12.748-5.61
		C25.276,15.516,21.838,13.923,20.747,13.703z M10.98,23.649c-4.587,0.215-8.297-2.086-8.297-5.147c0-3.063,3.71-5.521,8.297-5.733
		c4.59-0.212,8.306,1.681,8.306,4.736C19.283,20.568,15.57,23.44,10.98,23.649z"/>
	<path d="M10.063,14.787c-4.613,0.54-4.082,4.86-4.082,4.86s-0.045,1.369,1.238,2.067c2.698,1.461,5.479,0.577,6.883-1.234
		C15.511,18.665,14.685,14.252,10.063,14.787z M8.899,20.854c-0.86,0.101-1.555-0.397-1.555-1.115c0-0.717,0.617-1.469,1.48-1.557
		c0.989-0.095,1.632,0.474,1.632,1.197C10.457,20.091,9.759,20.754,8.899,20.854z M11.621,18.536
		c-0.292,0.218-0.649,0.188-0.804-0.074c-0.16-0.254-0.1-0.666,0.197-0.88c0.341-0.254,0.698-0.181,0.852,0.074
		C12.018,17.919,11.907,18.311,11.621,18.536z"/>
	<path d="M22.993,11.834c0.372,0,0.688-0.274,0.74-0.635c0.006-0.025,0.009-0.051,0.009-0.08c0.565-5.064-4.15-4.193-4.15-4.193
		c-0.417,0-0.755,0.34-0.755,0.763c0,0.414,0.338,0.754,0.755,0.754c3.387-0.746,2.638,2.638,2.638,2.638
		C22.232,11.5,22.573,11.834,22.993,11.834z"/>
	<path d="M22.444,2.991c-1.632-0.383-3.307-0.054-3.779,0.037c-0.034,0.003-0.07,0.037-0.103,0.046
		c-0.014,0.003-0.025,0.02-0.025,0.02c-0.463,0.131-0.803,0.56-0.803,1.066c0,0.603,0.488,1.101,1.1,1.101
		c0,0,0.592-0.081,0.995-0.238c0.4-0.16,3.775-0.12,5.45,2.698c0.915,2.055,0.403,3.43,0.34,3.652c0,0-0.217,0.535-0.217,1.061
		c0,0.605,0.488,0.988,1.095,0.988c0.509,0,0.932-0.068,1.058-0.926h0.006C29.364,6.492,25.359,3.671,22.444,2.991z"/>
</g>
</svg>
