<?xml version="1.0" encoding="utf-8"?>
<!-- Generator: Adobe Illustrator 16.0.4, SVG Export Plug-In . SVG Version: 6.00 Build 0)  -->
<!DOCTYPE svg PUBLIC "-//W3C//DTD SVG 1.1//EN" "http://www.w3.org/Graphics/SVG/1.1/DTD/svg11.dtd">
<svg version="1.1" id="Layer_1" xmlns="http://www.w3.org/2000/svg" xmlns:xlink="http://www.w3.org/1999/xlink" x="0px" y="0px"
	 width="28px" height="28px" viewBox="0 0 28 28" enable-background="new 0 0 28 28" xml:space="preserve">
<path fill="#444444" d="M17.172,19.438v3.297c0,0.697-0.203,1.047-0.609,1.047c-0.238,0-0.473-0.115-0.703-0.344v-4.703
	c0.23-0.23,0.465-0.344,0.703-0.344C16.969,18.391,17.172,18.738,17.172,19.438z M22.453,19.453v0.719h-1.406v-0.719
	c0-0.709,0.234-1.062,0.703-1.062S22.453,18.744,22.453,19.453z M7.359,16.047h1.672v-1.469H4.156v1.469h1.641v8.891H7.36
	L7.359,16.047L7.359,16.047z M11.859,24.938h1.391v-7.719h-1.391v5.906c-0.312,0.438-0.609,0.656-0.891,0.656
	c-0.187,0-0.296-0.109-0.328-0.328c-0.011-0.031-0.016-0.215-0.016-0.547v-5.689H9.233v6.109c0,0.512,0.042,0.891,0.125,1.141
	c0.125,0.387,0.427,0.578,0.906,0.578c0.5,0,1.031-0.316,1.594-0.953L11.859,24.938L11.859,24.938z M18.562,22.625v-3.078
	c0-0.762-0.047-1.277-0.142-1.547c-0.177-0.584-0.547-0.875-1.108-0.875c-0.521,0-1.006,0.281-1.453,0.844v-3.391h-1.392v10.359
	h1.392v-0.75c0.469,0.572,0.953,0.857,1.453,0.857c0.562,0,0.932-0.285,1.108-0.857c0.095-0.281,0.142-0.803,0.142-1.564V22.625z
	 M23.844,22.469v-0.203h-1.422c0,0.531-0.01,0.85-0.031,0.953c-0.072,0.375-0.281,0.562-0.625,0.562
	c-0.479,0-0.719-0.359-0.719-1.078v-1.359h2.797v-1.609c0-0.822-0.141-1.426-0.422-1.812c-0.406-0.531-0.958-0.797-1.656-0.797
	c-0.707,0-1.266,0.266-1.672,0.797c-0.292,0.385-0.438,0.99-0.438,1.812v2.703c0,0.822,0.15,1.428,0.453,1.812
	c0.406,0.531,0.968,0.797,1.687,0.797c0.75,0,1.312-0.275,1.687-0.826c0.188-0.283,0.297-0.564,0.328-0.846
	c0.021-0.094,0.031-0.395,0.031-0.904L23.844,22.469z M14.344,8.203V4.921c0-0.719-0.224-1.078-0.672-1.078
	C13.224,3.843,13,4.203,13,4.921v3.281c0,0.729,0.224,1.094,0.672,1.094C14.12,9.296,14.344,8.932,14.344,8.203z M25.578,19.938
	c0,2.438-0.135,4.26-0.406,5.469c-0.146,0.615-0.447,1.131-0.906,1.547c-0.457,0.418-0.988,0.656-1.594,0.719
	C20.756,27.891,17.865,28,14,28c-3.865,0-6.755-0.109-8.672-0.328c-0.604-0.062-1.138-0.301-1.602-0.719
	c-0.464-0.416-0.763-0.932-0.898-1.547c-0.271-1.166-0.406-2.988-0.406-5.469c0-2.438,0.135-4.26,0.406-5.469
	c0.146-0.614,0.448-1.13,0.906-1.547c0.458-0.417,0.995-0.661,1.609-0.734c1.906-0.208,4.792-0.313,8.656-0.313
	c3.864,0,6.755,0.104,8.672,0.313c0.604,0.073,1.138,0.317,1.603,0.734c0.463,0.417,0.763,0.933,0.897,1.547
	C25.441,15.635,25.577,17.459,25.578,19.938L25.578,19.938z M9.984,0h1.594L9.687,6.233v4.234H8.124V6.233
	C7.978,5.463,7.66,4.358,7.171,2.92C6.786,1.848,6.447,0.874,6.155-0.001h1.656L8.92,4.107L9.984,0z M15.766,5.203v2.734
	c0,0.844-0.146,1.458-0.438,1.844c-0.385,0.531-0.938,0.797-1.656,0.797c-0.698,0-1.245-0.266-1.641-0.797
	c-0.292-0.396-0.438-1.011-0.438-1.844V5.203c0-0.833,0.146-1.443,0.438-1.828c0.396-0.531,0.943-0.797,1.641-0.797
	c0.719,0,1.271,0.266,1.656,0.797C15.62,3.76,15.766,4.369,15.766,5.203z M21,2.671v7.797h-1.422V9.609
	c-0.553,0.646-1.088,0.969-1.609,0.969c-0.479,0-0.787-0.193-0.922-0.578c-0.083-0.25-0.125-0.641-0.125-1.172V2.672h1.422v5.734
	c0,0.344,0.006,0.526,0.016,0.547c0.031,0.229,0.141,0.344,0.328,0.344c0.281,0,0.578-0.224,0.892-0.672V2.672L21,2.671L21,2.671z"
	/>
</svg>
