<?xml version="1.0" encoding="utf-8"?>
<!-- Generated by IcoMoon.io -->
<!DOCTYPE svg PUBLIC "-//W3C//DTD SVG 1.1//EN" "http://www.w3.org/Graphics/SVG/1.1/DTD/svg11.dtd">
<svg version="1.1" xmlns="http://www.w3.org/2000/svg" xmlns:xlink="http://www.w3.org/1999/xlink" width="1024" height="1024" viewBox="0 0 1024 1024">
<g id="icomoon-ignore">
</g>
<path d="M512 192c0 0-128-128-512-128v768c388 0 512 128 512 128s124-128 512-128v-768c-384 0-512 128-512 128zM128 192c162.688 13.632 262.496 51.264 320 81.76v515.488c-57.504-30.368-157.312-68-320-81.76v-515.488zM896 707.488c-162.752 13.76-262.496 51.328-320 81.76v-515.488c57.504-30.496 157.248-68.128 320-81.76v515.488z"></path>
</svg>
