<?xml version="1.0" encoding="utf-8"?>
<!-- Generated by IcoMoon.io -->
<!DOCTYPE svg PUBLIC "-//W3C//DTD SVG 1.1//EN" "http://www.w3.org/Graphics/SVG/1.1/DTD/svg11.dtd">
<svg version="1.1" xmlns="http://www.w3.org/2000/svg" xmlns:xlink="http://www.w3.org/1999/xlink" width="7062" height="1024" viewBox="0 0 7062 1024">
<g id="icomoon-ignore">
</g>
<path d="M221.993 819.266c-183.085 0-221.992-100.216-221.992-207.455v-384.571h94.177v377.477c0 77.813 25.844 136.594 133.855 136.594 95.089 0 138.35-39.749 138.35-148.532v-365.539h92.35v358.586c0.069 155.557-83.784 233.439-236.74 233.439zM846.463 810.559v-275.717c0-53.583-14.68-85.539-64.821-85.539-63.908 0-112.295 68.333-112.295 154.573v206.679h-91.649v-357.814c-20.717-3.441-38.907-6.954-63.978-8.568v-56.955c48.317-5.267 99.373-8.707 152.044-6.040 0 22.402-2.528 59.555-6.88 84.556h1.757c25.001-55.341 76.9-93.263 148.532-93.263 97.758 0 128.73 62.082 128.73 137.367v300.718h-91.437zM1045.069 810.559v-357.814c-20.788-3.441-38.907-6.954-63.978-8.568v-56.955c48.317-5.267 99.443-8.707 155.624-6.040v429.376h-91.647zM1090.928 303.44c-31.041 0-57.025-24.44-57.025-56.183 0-30.971 26.055-56.323 57.025-56.323 31.743 0 57.798 25.282 57.798 56.323 0 30.9-26.055 56.183-57.798 56.183zM1445.019 810.559h-94.106l-160.612-429.306h101.831l80.341 227.188c10.324 29.215 19.801 59.553 27.599 88.066h0.983c6.952-26.827 15.453-57.095 25.001-84.695l82.027-230.56h99.373l-162.437 429.306zM1977.841 603.104h-273.819c-2.528 97.617 41.506 141.721 126.973 141.721 41.435 0 84.695-8.568 123.461-25.706l12.079 72.335c-44.805 18.33-98.391 27.809-152.114 27.809-132.17 0-205.557-69.245-205.557-220.447 0-129.57 70.86-226.346 196.149-226.346 122.759 0 175.431 83.642 175.431 185.754 0.069 12.079-0.773 26.757-2.599 44.876zM1801.639 440.807c-51.757 0-88.207 37.994-95.932 98.529h182.312c1.685-61.519-31.954-98.529-86.378-98.529zM2288.251 464.122c-89.892-17.276-131.327 43.119-131.327 171.919v174.518h-91.508v-357.814c-20.788-3.441-38.977-6.954-64.047-8.568v-56.955c48.387-5.267 99.373-8.707 152.114-6.040 0 24.088-3.441 62.082-8.637 95.019h1.755c18.962-58.079 61.38-111.663 146.003-102.886l-4.354 90.805zM2429.2 819.266c-32.937 0-68.402-4.354-95.159-12.29l7.023-78.445c26.827 10.253 61.45 16.224 94.036 16.224 48.387 0 82.166-21.56 82.166-56.183 0-88.207-188.353-34.482-188.353-183.013 0-75.285 57.025-133.084 175.359-133.084 25.984 0 56.113 3.441 81.183 8.707l-5.197 74.092c-25.001-7.654-53.514-12.006-81.183-12.006-50.916 0-75.215 20.788-75.215 53.583 0 84.695 190.108 37.994 190.108 182.453 0 81.113-70.931 139.965-184.77 139.965zM2699.438 810.559v-357.814c-20.717-3.441-38.977-6.954-63.908-8.568v-56.955c48.317-5.267 99.443-8.707 155.487-6.040v429.376h-91.575zM2745.227 303.44c-30.971 0-56.955-24.44-56.955-56.183 0-30.971 25.984-56.323 56.955-56.323 31.884 0 57.868 25.282 57.868 56.323-0.069 30.9-26.055 56.183-57.868 56.183zM3047.631 818.284c-91.579 0-119.249-35.465-119.249-131.257v-234.212h-82.027v-71.563h82.027v-136.664l92.561-24.931v161.665h112.295v71.563h-112.295v205.699c0 63.908 12.851 81.183 56.041 81.183 19.032 0 37.153-2.597 52.671-6.11l7.795 74.302c-25.915 6.040-61.38 10.324-89.822 10.324zM3416.541 840.757c-53.444 143.336-110.469 187.51-208.085 187.51-16.433 0-39.819-2.739-54.497-5.197l10.394-80.411c14.609 4.354 35.395 6.88 52.671 6.88 40.593 0 78.656-19.734 107.169-96.704l15.52-42.277-160.753-429.306h103.727l69.948 196.007c13.835 38.134 24.23 75.919 33.639 112.436h0.913c8.568-34.693 26.827-90.805 42.418-134.066l61.239-174.307h99.373l-173.675 459.434zM3978.017 819.266c-119.036 0-196.85-66.647-196.85-217.92 0-129.501 83.853-228.874 214.197-228.874 114.963 0 196.078 63.908 196.078 214.969 0 132.379-86.311 231.825-213.426 231.825zM3987.707 450.287c-56.183 0-110.611 43.121-110.611 141.792 0 96.634 38.063 147.69 109.767 147.69 59.553 0 109.626-46.491 109.626-146.075-0.069-91.508-35.395-143.406-108.782-143.406zM4529.871 257.439c-19.032-5.758-39.749-8.497-58.71-8.497-55.339 0-80.411 30.197-80.411 97.547v34.763h111.451v71.563h-111.451v357.742h-91.437v-357.814h-82.166v-71.563h82.166v-33.007c0-117.422 55.972-174.447 167.565-174.447 24.159 0 47.474 2.597 69.877 7.795l-6.883 75.916zM6411.428 812.876v-379.584c0-73.809-23.528-117.983-103.868-117.983-102.533 0-180.136 94.036-180.136 213.073v284.494h-146.847v-492.793c-33.288-4.776-55.55-10.885-98.319-11.869v-78.515c77.602-7.305 155.063-12.006 239.689-8.427 0 30.971-4.284 82.166-11.096 116.722h0.632c40.171-76.198 125.428-128.588 240.532-128.588 156.539 0 206.403 85.679 206.403 189.263v414.137h-146.988zM6914.897 823.621c-147.199 0-191.653-48.738-191.653-180.839v-322.699h-126.341v-98.81h126.341v-182.525l148.462-34.482v217.006h180.628v98.81h-180.628v283.231c0 88.066 20.928 112.014 90.314 112.014 30.62 0 59.764-3.651 84.765-8.427l12.642 102.463c-41.786 8.217-98.529 14.255-144.529 14.255zM5830.009 691.171l21.42 99.795c0 0-105.132 36.306-237.373 36.306-323.471 9.693-471.654-200.151-498.551-233.088-25.143-30.69-144.036-173.885-144.036-173.885v392.857h-146.847v-803.553h146.847v372.491l311.814-372.491h169.953l-338.15 386.607c0 0 89.19 109.907 125.567 149.516 58.712 63.908 242.922 265.253 589.356 145.443zM5277.452 512.229c27.178 29.637 83.431 90.805 170.655 129.993 6.671 2.878 13.415 5.688 20.156 8.217-25.212-35.465-41.084-86.311-41.084-157.312 0-98.812 41.012-189.546 160.612-189.546 88.558 0 143.757 51.057 140.948 135.611v0.983c-87.153-3.511-171.779 3.863-251.628 11.026v78.586l396.438 21.701c2.948-24.931 5.829-69.387 5.829-86.241 0-140.248-84.625-256.053-292.501-256.053-218.621 0-310.971 156.75-310.971 283.933 0 5.548 0.141 10.746 0.283 16.082 0 2.177 0.562 2.247 1.265 3.020z"></path>
</svg>
