<?xml version="1.0" encoding="utf-8"?>
<!-- Generator: Adobe Illustrator 16.0.0, SVG Export Plug-In . SVG Version: 6.00 Build 0)  -->
<!DOCTYPE svg PUBLIC "-//W3C//DTD SVG 1.1//EN" "http://www.w3.org/Graphics/SVG/1.1/DTD/svg11.dtd">
<svg version="1.1" xmlns="http://www.w3.org/2000/svg" xmlns:xlink="http://www.w3.org/1999/xlink" width="426.48px"
	 height="426.48px" viewBox="0 0 426.48 426.48" enable-background="new 0 0 426.48 426.48" xml:space="preserve">
<switch>
	<g i:extraneous="self">
		<g>
			<g>
				<path d="M230.012,80.813H103.345v20h126.667"/>
				<path d="M103.345,150.146H268.68v-20H103.345v10V150.146z"/>
				<path d="M42.769,30v83.573v83.573v83.573v83.573"/>
				<path d="M42.769,394.293h75.417h45.417h45.417h45.417v-7.5v-7.5v-7.5v-7.5h-45.417h-45.417h-45.417H72.769V280.72v-83.573
					v-83.573V30h56.622h56.621h56.621h56.622v39.193v39.193v39.193v39.193c0.987,0.286,1.938,0.606,2.854,0.951
					c0.916,0.345,1.797,0.714,2.641,1.096c0.844,0.382,1.65,0.777,2.419,1.173c0.769,0.396,1.501,0.794,2.193,1.183
					c1.172-0.657,2.454-1.343,3.842-2.002c1.388-0.659,2.882-1.291,4.478-1.841c1.597-0.55,3.295-1.018,5.092-1.348
					s3.691-0.523,5.681-0.523c0.067,0,0.135,0.001,0.201,0.004c0.067,0.002,0.134,0.005,0.2,0.008s0.133,0.007,0.199,0.01
					c0.066,0.003,0.133,0.006,0.2,0.008v-38.873v-38.873V68.873V0H186.012h-56.621H42.769"/>
				<path d="M375.425,260.988c-2.231-1.988-4.768-4.242-5.322-5.954c-0.606-1.872,0.101-5.155,0.779-8.332
					c1.07-4.979,2.283-10.621-0.797-14.853c-3.104-4.271-8.883-4.856-13.979-5.373c-3.058-0.312-6.521-0.662-8.066-1.789
					c-1.512-1.101-2.896-4.254-4.115-7.037c-2.074-4.725-4.422-10.078-9.51-11.729c-0.937-0.304-1.932-0.458-2.959-0.458
					c-3.896,0-7.633,2.17-11.246,4.27c-2.852,1.656-5.801,3.368-7.846,3.368c-2.047,0-4.994-1.712-7.849-3.368
					c-3.612-2.1-7.352-4.27-11.246-4.27c-1.026,0-2.021,0.154-2.959,0.458c-5.086,1.651-7.438,7.006-9.512,11.729
					c-1.221,2.783-2.604,5.938-4.113,7.037c-1.551,1.127-5.014,1.479-8.065,1.789c-5.097,0.517-10.873,1.103-13.979,5.373
					c-3.08,4.229-1.867,9.873-0.798,14.853c0.683,3.177,1.39,6.461,0.779,8.333c-0.556,1.711-3.088,3.965-5.322,5.953
					c-3.885,3.455-8.287,7.373-8.287,12.809s4.402,9.352,8.287,12.809c2.234,1.986,4.769,4.24,5.324,5.953
					c0.606,1.871-0.099,5.156-0.781,8.332c-1.069,4.979-2.282,10.621,0.798,14.854c3.106,4.271,8.885,4.855,13.979,5.374
					c3.055,0.312,6.518,0.659,8.065,1.788c1.512,1.101,2.896,4.254,4.115,7.037c2.072,4.724,4.424,10.076,9.51,11.729
					c0.938,0.305,1.935,0.457,2.961,0.457c3.894,0,7.632-2.17,11.244-4.27c2.853-1.655,5.802-3.368,7.849-3.368
					c2.045,0,4.993,1.712,7.846,3.368c3.613,2.1,7.352,4.27,11.246,4.27c1.027,0,2.022-0.154,2.961-0.457
					c5.084-1.652,7.434-7.007,9.506-11.73c1.223-2.781,2.605-5.938,4.117-7.035c1.549-1.129,5.012-1.479,8.065-1.789
					c5.099-0.518,10.873-1.104,13.979-5.373c3.08-4.23,1.867-9.874,0.797-14.854c-0.682-3.176-1.389-6.461-0.777-8.332
					c0.556-1.713,3.089-3.967,5.32-5.955c3.887-3.455,8.287-7.371,8.287-12.807S379.31,264.443,375.425,260.988z M312.362,299.766
					c-14.345,0-25.972-11.627-25.972-25.971c0-14.343,11.627-25.97,25.972-25.97c14.342,0,25.969,11.627,25.969,25.97
					C338.331,288.139,326.704,299.766,312.362,299.766z"/>
				<path d="M312.367,399.614c0,0,34.923,26.188,34.923,25.78v-23.582v-20.558v-20.558v-20.557c-0.575,0.917-1.21,1.822-1.915,2.69
					c-0.706,0.868-1.483,1.698-2.344,2.464c-0.861,0.766-1.806,1.468-2.846,2.079c-1.041,0.61-2.177,1.132-3.421,1.535
					c-0.425,0.138-0.854,0.259-1.288,0.362c-0.436,0.104-0.875,0.19-1.318,0.26s-0.891,0.121-1.342,0.156s-0.906,0.053-1.362,0.053
					c-1.486,0-2.917-0.184-4.291-0.496s-2.69-0.754-3.948-1.269s-2.457-1.104-3.596-1.711s-2.217-1.233-3.233-1.823
					c-0.288-0.168-0.615-0.358-0.962-0.558c-0.348-0.198-0.713-0.406-1.077-0.607c-0.363-0.202-0.725-0.396-1.062-0.571
					c-0.338-0.174-0.652-0.326-0.922-0.444c-0.27,0.118-0.584,0.271-0.922,0.444c-0.338,0.175-0.699,0.369-1.062,0.571
					c-0.363,0.201-0.729,0.409-1.077,0.607c-0.347,0.199-0.675,0.39-0.964,0.558c-1.016,0.59-2.094,1.216-3.232,1.823
					c-1.138,0.607-2.337,1.196-3.595,1.711s-2.574,0.956-3.948,1.269c-1.373,0.312-2.804,0.496-4.289,0.496l0,0l0,0l0,0l0,0
					c-0.457,0-0.911-0.018-1.362-0.053s-0.899-0.087-1.343-0.156s-0.884-0.156-1.318-0.26c-0.436-0.104-0.865-0.224-1.29-0.361
					c-1.255-0.408-2.397-0.928-3.439-1.534c-1.043-0.607-1.986-1.303-2.845-2.062c-0.857-0.76-1.631-1.582-2.332-2.446
					c-0.701-0.863-1.332-1.767-1.904-2.687v42.606v42.606"/>
			</g>
		</g>
	</g>
</switch>
</svg>
