<?xml version="1.0" encoding="utf-8"?>
<!-- Generated by IcoMoon.io -->
<!DOCTYPE svg PUBLIC "-//W3C//DTD SVG 1.1//EN" "http://www.w3.org/Graphics/SVG/1.1/DTD/svg11.dtd">
<svg version="1.1" xmlns="http://www.w3.org/2000/svg" xmlns:xlink="http://www.w3.org/1999/xlink" width="1024" height="1024" viewBox="0 0 1024 1024">
<g id="icomoon-ignore">
</g>
<path d="M17.504 382.699c-72.96 272.32 88.608 552.16 360.896 625.152 272.32 72.96 552.128-88.576 625.152-360.896 72.96-272.352-88.576-552.16-360.896-625.152-272.352-72.96-552.16 88.576-625.152 360.896zM122.4 410.795c6.72-25.184 15.648-49.12 26.624-71.552l100.672 26.976c-7.424 20.256-13.92 41.024-19.584 62.208s-10.432 42.4-14.144 63.68l-104.224-27.968c2.272-17.824 5.92-35.52 10.656-53.344zM213.632 244.107c46.56-51.168 105.536-89.312 170.912-110.88-34.464 40.416-64.736 84.736-90.368 132.48l-80.544-21.6zM557.856 115.755l3.296 0.448-55.264 206.208-103.232-27.648c40.896-69.536 93.76-130.048 155.2-179.008zM666.016 144.299l2.816 1.184c28.736 73.152 44.512 152 45.12 232.672l-103.2-27.68 55.264-206.176zM810.208 247.275c45.856 51.36 78.048 113.984 92.8 181.568l-80.736-21.632c1.856-54.144-2.464-107.68-12.064-159.936zM911.424 543.531c-1.792 24.928-6.016 50.112-12.736 75.296-4.832 17.856-10.752 34.912-17.632 51.488l-103.872-27.808c7.264-20.352 13.696-41.088 19.424-62.272 5.664-21.184 10.368-42.4 14.272-63.616l100.544 26.912zM823.36 767.307c-52.832 65.184-124.768 112.224-204.96 134.624 44.16-47.328 82.528-100.672 113.856-159.072l91.104 24.448zM223.552 796.107c-58.24-59.456-97.056-136.192-110.144-219.104l91.040 24.416c-1.984 66.24 4.48 131.904 19.104 194.688zM355.040 394.443l122.752 32.864-33.76 125.856-122.72-32.864c3.456-21.344 8.032-42.624 13.728-63.808 5.632-21.12 12.32-41.856 20-62.048zM582.656 455.435l122.72 32.864c-3.424 21.344-8.032 42.624-13.696 63.808-5.696 21.152-12.352 41.92-20.032 62.048l-122.752-32.864 33.76-125.856zM312.704 630.443l103.232 27.616-56.224 209.824c-29.92-74.56-46.4-154.944-47.008-237.44zM520.832 686.219l103.232 27.68c-41.792 71.104-96.256 132.48-159.456 182.112l56.224-209.792z"></path>
</svg>
