<?xml version="1.0" encoding="utf-8"?>
<!-- Generator: Adobe Illustrator 16.0.3, SVG Export Plug-In . SVG Version: 6.00 Build 0)  -->
<!DOCTYPE svg PUBLIC "-//W3C//DTD SVG 1.1//EN" "http://www.w3.org/Graphics/SVG/1.1/DTD/svg11.dtd">
<svg version="1.1" id="Layer_1" xmlns="http://www.w3.org/2000/svg" xmlns:xlink="http://www.w3.org/1999/xlink" x="0px" y="0px"
	 width="24px" height="29px" viewBox="0.014 0.182 24 29" enable-background="new 0.014 0.182 24 29" xml:space="preserve">
<path d="M17.347,13.363H6.68V9.409c0-1.456,0.521-2.698,1.563-3.728c1.042-1.03,2.299-1.544,3.771-1.544s2.729,0.515,3.771,1.544
	c1.042,1.03,1.563,2.272,1.563,3.728V13.363z M0.014,15.341v11.863c0,0.549,0.195,1.017,0.583,1.401
	c0.389,0.385,0.861,0.577,1.416,0.577h20c0.555,0,1.027-0.192,1.417-0.577c0.389-0.384,0.583-0.852,0.583-1.401V15.341
	c0-0.549-0.195-1.016-0.583-1.4c-0.389-0.384-0.861-0.577-1.417-0.577h-0.667V9.409c0-2.526-0.916-4.696-2.75-6.509
	c-1.833-1.813-4.028-2.719-6.583-2.719c-2.556,0-4.75,0.906-6.583,2.719c-1.833,1.813-2.75,3.982-2.75,6.509v3.954H2.013
	c-0.555,0-1.027,0.193-1.416,0.577S0.014,14.792,0.014,15.341z"/>
</svg>
