<?xml version="1.0" encoding="utf-8"?>
<!-- Generated by IcoMoon.io -->
<!DOCTYPE svg PUBLIC "-//W3C//DTD SVG 1.1//EN" "http://www.w3.org/Graphics/SVG/1.1/DTD/svg11.dtd">
<svg version="1.1" xmlns="http://www.w3.org/2000/svg" xmlns:xlink="http://www.w3.org/1999/xlink" width="1240" height="1024" viewBox="0 0 1240 1024">
<g id="icomoon-ignore">
</g>
<path d="M1152.032 337.675c-50.784-38.88-120.16-57.472-208.064-57.472-96.48 0-162.496 21.952-197.984 67.648-42.304-45.664-106.56-67.648-196.256-67.648-86.24 0-157.28 18.56-208.064 57.472-59.232 44.032-87.968 106.624-87.968 191.2v407.744h196.256v-385.728c0-81.216 33.824-121.824 99.776-121.824 65.984 0 98.144 40.608 98.144 121.824v385.728h197.888v-385.728c0-81.216 33.888-121.824 99.872-121.824 65.952 0 99.776 40.608 99.776 121.824v385.728h0.032v1.664h194.592v-409.408c0-84.576-28.832-147.2-88-191.2zM10.080 352.939c399.232 0 409.376 69.344 812.032-248.672-346.816 35.488-514.304 69.344-812.032 248.672zM441.472 229.483c3.392 37.184-5.088-35.584 0 0zM72.96 778.827c-32.992-82.432-73.248-174.016-25.632-287.616 31.136 106.272 25.632 186.88 25.632 287.616zM56.992 550.027l-18.24-3.104c0 0 0-83.616 0-115.648 0-34.336 38.24-100.16 32-89.024l18.24 3.072c0 0-25.12 33.952-32 75.936-3.392 20.736 0 128.768 0 128.768z"></path>
</svg>
