<?xml version="1.0" encoding="utf-8"?>
<!-- Generator: Adobe Illustrator 16.0.4, SVG Export Plug-In . SVG Version: 6.00 Build 0)  -->
<!DOCTYPE svg PUBLIC "-//W3C//DTD SVG 1.1//EN" "http://www.w3.org/Graphics/SVG/1.1/DTD/svg11.dtd">
<svg version="1.1" id="Layer_1" xmlns="http://www.w3.org/2000/svg" xmlns:xlink="http://www.w3.org/1999/xlink" x="0px" y="0px"
	 width="28px" height="28px" viewBox="242 242 28 28" enable-background="new 242 242 28 28" xml:space="preserve">
<g id="icomoon-ignore">
</g>
<path d="M247.401,264.441c-2.302-2.299-3.567-5.353-3.567-8.608c0-6.707,5.457-12.167,12.167-12.167l1.521,1.521L256,246.708
	c-5.032,0-9.125,4.094-9.125,9.125c0,2.441,0.951,4.735,2.677,6.458l-1.868,0.243L247.401,264.441z M256,268l-1.521-1.515
	l1.521-1.527c5.031,0,9.125-4.093,9.125-9.125c0-2.436-0.95-4.729-2.679-6.454l1.872-0.246l0.278-1.904
	c2.302,2.299,3.57,5.355,3.57,8.604C268.167,262.54,262.707,268,256,268L256,268z"/>
</svg>
