<?xml version="1.0" encoding="utf-8"?>
<!-- Generated by IcoMoon.io -->
<!DOCTYPE svg PUBLIC "-//W3C//DTD SVG 1.1//EN" "http://www.w3.org/Graphics/SVG/1.1/DTD/svg11.dtd">
<svg version="1.1" xmlns="http://www.w3.org/2000/svg" xmlns:xlink="http://www.w3.org/1999/xlink" width="25" height="28" viewBox="0 0 25 28">
<g id="icomoon-ignore">
</g>
<path d="M7.75 21q0 0.938-0.664 1.594t-1.586 0.656q-0.938 0-1.594-0.656t-0.656-1.594 0.656-1.594 1.594-0.656q0.922 0 1.586 0.656t0.664 1.594zM14.5 24q0 0.828-0.586 1.414t-1.414 0.586-1.414-0.586-0.586-1.414 0.586-1.414 1.414-0.586 1.414 0.586 0.586 1.414zM5 14q0 1.031-0.734 1.766t-1.766 0.734-1.766-0.734-0.734-1.766 0.734-1.766 1.766-0.734 1.766 0.734 0.734 1.766zM21.25 21q0 0.719-0.516 1.234t-1.234 0.516-1.234-0.516-0.516-1.234 0.516-1.234 1.234-0.516 1.234 0.516 0.516 1.234zM8.25 7q0 1.141-0.805 1.945t-1.945 0.805-1.945-0.805-0.805-1.945 0.805-1.945 1.945-0.805 1.945 0.805 0.805 1.945zM15.5 4q0 1.25-0.875 2.125t-2.125 0.875-2.125-0.875-0.875-2.125 0.875-2.125 2.125-0.875 2.125 0.875 0.875 2.125zM24 14q0 0.625-0.438 1.062t-1.062 0.438-1.062-0.438-0.438-1.062 0.438-1.062 1.062-0.438 1.062 0.438 0.438 1.062zM20.75 7q0 0.516-0.367 0.883t-0.883 0.367-0.883-0.367-0.367-0.883 0.367-0.883 0.883-0.367 0.883 0.367 0.367 0.883z" fill="#000000"></path>
</svg>
