<?xml version="1.0" encoding="utf-8"?>
<!-- Generated by IcoMoon.io -->
<!DOCTYPE svg PUBLIC "-//W3C//DTD SVG 1.1//EN" "http://www.w3.org/Graphics/SVG/1.1/DTD/svg11.dtd">
<svg version="1.1" xmlns="http://www.w3.org/2000/svg" xmlns:xlink="http://www.w3.org/1999/xlink" width="1024" height="1024" viewBox="0 0 1024 1024">
<g id="icomoon-ignore">
</g>
<path d="M1024 1024h-1024v-896h128v768h768v-768h128zM192 384h128v128h-128zM448 384h128v128h-128zM704 384h128v128h-128zM192 640h128v128h-128zM448 640h128v128h-128zM704 768v-128h128zM256 192v-128c0-35.36 28.64-64 64-64s64 28.64 64 64v128c0 35.36-28.64 64-64 64s-64-28.64-64-64zM640 192v-128c0-35.36 28.64-64 64-64s64 28.64 64 64v128c0 35.36-28.64 64-64 64s-64-28.64-64-64z"></path>
</svg>
